<?xml version="1.0" encoding="utf-8"?>
<!-- Generator: Adobe Illustrator 22.1.0, SVG Export Plug-In . SVG Version: 6.00 Build 0)  -->
<svg version="1.1" id="Calque_1" xmlns="http://www.w3.org/2000/svg" xmlns:xlink="http://www.w3.org/1999/xlink" x="0px" y="0px"
	 viewBox="0 0 336.1 57.6" style="enable-background:new 0 0 336.1 57.6;" xml:space="preserve">
<style type="text/css">
	.st0{fill:#D52D2A;}
	.st1{fill:#E45B5B;}
	.st2{fill:#F38383;}
	.st3{fill:#F57D20;}
	.st4{clip-path:url(#SVGID_2_);fill:#414042;}
	.st5{clip-path:url(#SVGID_2_);fill:#A7A9AC;}
</style>
<g>
	<rect x="75.9" y="1.2" transform="matrix(0.7071 -0.7071 0.7071 0.7071 5.9082 71.164)" class="st0" width="25.9" height="54.5"/>
	
		<rect x="35.7" y="1.2" transform="matrix(0.7071 -0.7071 0.7071 0.7071 -5.8719 42.7248)" class="st1" width="25.9" height="54.5"/>
	<rect x="5.4" y="25.5" transform="matrix(0.7071 -0.7071 0.7071 0.7071 -21.8434 24.293)" class="st2" width="26" height="26"/>
	<path class="st3" d="M58.7,57.3L58.7,57.3L58.7,57.3z"/>
	<g>
		<defs>
			<rect id="SVGID_1_" width="336.1" height="57.6"/>
		</defs>
		<clipPath id="SVGID_2_">
			<use xlink:href="#SVGID_1_"  style="overflow:visible;"/>
		</clipPath>
		<path class="st4" d="M170.1,57.3h-2.7l-2.2-5.8h-8.8l-2.1,5.8h-2.7l8-20.8h2.5L170.1,57.3z M164.4,49.3l-3.3-8.9
			c-0.1-0.3-0.2-0.8-0.3-1.4h-0.1c-0.1,0.6-0.2,1.1-0.3,1.4l-3.2,8.9H164.4z"/>
		<path class="st4" d="M189.9,57.3h-3l-10.7-16.6c-0.3-0.4-0.5-0.8-0.7-1.3h-0.1c0.1,0.4,0.1,1.4,0.1,2.9v15h-2.4V36.5h3.2
			l10.4,16.3c0.4,0.7,0.7,1.1,0.8,1.4h0.1c-0.1-0.6-0.1-1.6-0.1-3.1V36.5h2.4V57.3z"/>
		<path class="st4" d="M211.4,57.3h-2.7l-2.2-5.8h-8.8l-2.1,5.8h-2.7l8-20.8h2.5L211.4,57.3z M205.7,49.3l-3.3-8.9
			c-0.1-0.3-0.2-0.8-0.3-1.4h-0.1c-0.1,0.6-0.2,1.1-0.3,1.4l-3.2,8.9H205.7z"/>
		<polygon class="st4" points="225.3,57.3 214.5,57.3 214.5,36.5 216.9,36.5 216.9,55.1 225.3,55.1 		"/>
		<path class="st4" d="M240.1,36.5l-6.9,13.1v7.7h-2.4v-7.6l-6.7-13.2h2.8l4.7,9.4c0.1,0.1,0.2,0.5,0.5,1.3h0
			c0.1-0.3,0.3-0.8,0.6-1.3l4.9-9.4H240.1z"/>
		<polygon class="st4" points="255.9,38.7 249.9,38.7 249.9,57.3 247.4,57.3 247.4,38.7 241.5,38.7 241.5,36.5 255.9,36.5 		"/>
		<rect x="259.1" y="36.5" class="st4" width="2.4" height="20.8"/>
		<path class="st4" d="M281.2,56.4c-1.5,0.8-3.4,1.2-5.7,1.2c-3,0-5.3-1-7.1-2.9c-1.8-1.9-2.7-4.4-2.7-7.5c0-3.3,1-6,3-8.1
			c2-2,4.5-3.1,7.6-3.1c2,0,3.6,0.3,4.9,0.9v2.6c-1.5-0.8-3.1-1.2-4.9-1.2c-2.4,0-4.3,0.8-5.8,2.4c-1.5,1.6-2.2,3.7-2.2,6.4
			c0,2.5,0.7,4.6,2.1,6.1c1.4,1.5,3.2,2.3,5.5,2.3c2.1,0,3.9-0.5,5.4-1.4V56.4z"/>
		<path class="st4" d="M284.5,56.4v-2.9c0.3,0.3,0.7,0.6,1.2,0.8c0.5,0.2,0.9,0.4,1.5,0.6c0.5,0.2,1,0.3,1.5,0.4
			c0.5,0.1,1,0.1,1.4,0.1c1.5,0,2.6-0.3,3.4-0.8c0.7-0.6,1.1-1.4,1.1-2.4c0-0.6-0.1-1-0.4-1.5c-0.2-0.4-0.6-0.8-1-1.1
			c-0.4-0.3-1-0.7-1.5-1c-0.6-0.3-1.2-0.6-1.9-1c-0.7-0.4-1.4-0.7-2-1.1c-0.6-0.4-1.2-0.8-1.6-1.2c-0.5-0.5-0.8-1-1.1-1.5
			c-0.3-0.6-0.4-1.3-0.4-2c0-0.9,0.2-1.8,0.6-2.5c0.4-0.7,1-1.3,1.6-1.7c0.7-0.5,1.4-0.8,2.3-1c0.9-0.2,1.7-0.3,2.6-0.3
			c2,0,3.5,0.2,4.5,0.7v2.7c-1.2-0.8-2.8-1.3-4.7-1.3c-0.5,0-1.1,0.1-1.6,0.2c-0.5,0.1-1,0.3-1.4,0.5c-0.4,0.3-0.8,0.6-1,1
			c-0.3,0.4-0.4,0.9-0.4,1.5c0,0.5,0.1,1,0.3,1.4c0.2,0.4,0.5,0.7,0.9,1.1c0.4,0.3,0.9,0.6,1.4,0.9c0.6,0.3,1.2,0.6,1.9,1
			c0.7,0.4,1.4,0.8,2.1,1.2c0.7,0.4,1.3,0.9,1.8,1.3c0.5,0.5,0.9,1,1.2,1.6c0.3,0.6,0.4,1.3,0.4,2.1c0,1-0.2,1.9-0.6,2.6
			c-0.4,0.7-0.9,1.3-1.6,1.7c-0.7,0.4-1.5,0.8-2.4,1c-0.9,0.2-1.8,0.3-2.8,0.3c-0.3,0-0.7,0-1.2-0.1c-0.5-0.1-1-0.1-1.5-0.2
			c-0.5-0.1-1-0.2-1.4-0.4C285.1,56.8,284.7,56.6,284.5,56.4"/>
		<rect x="132.5" class="st5" width="1.5" height="57.3"/>
		<path class="st4" d="M181.9,26.7H176V10.7c0-1.7,0.1-3.6,0.2-5.7h-0.1c-0.3,1.6-0.6,2.8-0.8,3.5L169,26.7h-4.9l-6.4-17.9
			c-0.2-0.5-0.5-1.7-0.8-3.7h-0.2c0.2,2.6,0.2,4.9,0.2,6.9v14.7h-5.4V0h8.8l5.4,15.8c0.4,1.3,0.7,2.5,0.9,3.8h0.1
			c0.3-1.5,0.7-2.8,1.1-3.8L173.4,0h8.6V26.7z"/>
		<polygon class="st4" points="204,26.7 188,26.7 188,0 203.4,0 203.4,4.9 194,4.9 194,10.8 202.7,10.8 202.7,15.7 194,15.7 
			194,21.8 204,21.8 		"/>
		<path class="st4" d="M230.6,26.7h-6.9l-4.1-6.9c-0.3-0.5-0.6-1-0.9-1.4c-0.3-0.4-0.6-0.8-0.9-1.1c-0.3-0.3-0.6-0.5-0.9-0.7
			c-0.3-0.2-0.7-0.2-1-0.2h-1.6v10.2h-6V0h9.5c6.5,0,9.7,2.4,9.7,7.2c0,0.9-0.1,1.8-0.4,2.6c-0.3,0.8-0.7,1.5-1.2,2.1
			c-0.5,0.6-1.1,1.2-1.9,1.6c-0.7,0.5-1.6,0.8-2.5,1.1v0.1c0.4,0.1,0.8,0.3,1.2,0.6c0.4,0.3,0.7,0.6,1.1,1c0.3,0.4,0.7,0.8,1,1.2
			c0.3,0.4,0.6,0.8,0.9,1.3L230.6,26.7z M214.3,4.5v7.4h2.6c1.3,0,2.3-0.4,3.1-1.1c0.8-0.8,1.2-1.7,1.2-2.8c0-2.3-1.4-3.5-4.2-3.5
			H214.3z"/>
		<rect x="233.1" y="0" class="st4" width="6" height="26.7"/>
		<path class="st4" d="M245.2,26.7V0h9.4c9.5,0,14.2,4.3,14.2,13c0,4.2-1.3,7.5-3.9,9.9c-2.6,2.5-6,3.7-10.3,3.7H245.2z M251.2,4.9
			v16.9h3c2.6,0,4.6-0.8,6.1-2.3c1.5-1.6,2.2-3.7,2.2-6.4c0-2.5-0.7-4.5-2.2-6c-1.5-1.5-3.5-2.2-6.2-2.2H251.2z"/>
		<rect x="273.2" y="0" class="st4" width="6" height="26.7"/>
		<path class="st4" d="M308.7,26.7h-6.5l-1.9-5.9h-9.5l-1.9,5.9h-6.5L292.2,0h7.1L308.7,26.7z M298.9,16.1l-2.9-9
			c-0.2-0.7-0.4-1.5-0.4-2.4h-0.1c-0.1,0.8-0.2,1.6-0.5,2.3l-2.9,9H298.9z"/>
		<path class="st4" d="M336.1,26.7H330L319,9.9c-0.6-1-1.1-1.7-1.3-2.2h-0.1c0.1,0.9,0.2,2.4,0.2,4.3v14.6h-5.7V0h6.5l10.6,16.2
			c0.5,0.7,0.9,1.5,1.3,2.2h0.1c-0.1-0.6-0.1-1.8-0.1-3.7V0h5.7V26.7z"/>
	</g>
</g>
</svg>
