<?xml version="1.0" encoding="utf-8"?>
<!-- Generator: Adobe Illustrator 22.1.0, SVG Export Plug-In . SVG Version: 6.00 Build 0)  -->
<svg version="1.1" id="Calque_1" xmlns="http://www.w3.org/2000/svg" xmlns:xlink="http://www.w3.org/1999/xlink" x="0px" y="0px"
	 viewBox="0 0 334.4 57.3" style="enable-background:new 0 0 334.4 57.3;" xml:space="preserve">
<style type="text/css">
	.st0{fill:#F57E20;}
	.st1{fill:#F89852;}
	.st2{fill:#FBB276;}
	.st3{fill:#F57D20;}
	.st4{clip-path:url(#SVGID_2_);fill:#414042;}
	.st5{clip-path:url(#SVGID_2_);fill:#A7A9AC;}
</style>
<g>
	<rect x="75.5" y="1.2" transform="matrix(0.7071 -0.7071 0.7071 0.7071 5.8777 70.8115)" class="st0" width="25.8" height="54.3"/>
	
		<rect x="35.5" y="1.2" transform="matrix(0.7071 -0.7071 0.7071 0.7071 -5.8441 42.5132)" class="st1" width="25.8" height="54.3"/>
	
		<rect x="5.4" y="25.4" transform="matrix(0.7071 -0.7071 0.7071 0.7071 -21.736 24.1723)" class="st2" width="25.9" height="25.9"/>
	<path class="st3" d="M58.5,57L58.5,57L58.5,57z"/>
	<g>
		<defs>
			<rect id="SVGID_1_" width="334.4" height="57.3"/>
		</defs>
		<clipPath id="SVGID_2_">
			<use xlink:href="#SVGID_1_"  style="overflow:visible;"/>
		</clipPath>
		<path class="st4" d="M166.3,56.1c-1.5,0.8-3.4,1.2-5.7,1.2c-2.9,0-5.3-0.9-7.1-2.8c-1.8-1.9-2.7-4.4-2.7-7.5c0-3.3,1-6,3-8
			c2-2,4.5-3.1,7.6-3.1c2,0,3.6,0.3,4.9,0.9v2.6c-1.5-0.8-3.1-1.2-4.9-1.2c-2.4,0-4.3,0.8-5.8,2.4c-1.5,1.6-2.2,3.7-2.2,6.4
			c0,2.5,0.7,4.5,2.1,6c1.4,1.5,3.2,2.2,5.4,2.2c2.1,0,3.9-0.5,5.4-1.4V56.1z"/>
		<polygon class="st4" points="181.2,57 170.5,57 170.5,36.3 172.9,36.3 172.9,54.8 181.2,54.8 		"/>
		<path class="st4" d="M191.7,57.3c-2.9,0-5.3-1-7-2.9c-1.8-1.9-2.6-4.4-2.6-7.5c0-3.3,0.9-6,2.7-8c1.8-2,4.2-3,7.3-3
			c2.9,0,5.2,1,6.9,2.9c1.7,1.9,2.6,4.4,2.6,7.5c0,3.4-0.9,6-2.7,8C197.1,56.4,194.7,57.3,191.7,57.3 M191.9,38.2
			c-2.2,0-3.9,0.8-5.3,2.4c-1.4,1.6-2,3.6-2,6.2c0,2.5,0.7,4.6,2,6.2c1.3,1.6,3,2.3,5.2,2.3c2.3,0,4.1-0.7,5.4-2.2
			c1.3-1.5,2-3.6,2-6.2c0-2.7-0.6-4.8-1.9-6.3C195.9,38.9,194.1,38.2,191.9,38.2"/>
		<path class="st4" d="M220.8,48.6c0,5.8-2.6,8.7-7.9,8.7c-5,0-7.5-2.8-7.5-8.4V36.3h2.4v12.5c0,4.2,1.8,6.4,5.4,6.4
			c3.5,0,5.2-2,5.2-6.1V36.3h2.4V48.6z"/>
		<path class="st4" d="M225.9,57V36.3h5.7c7.3,0,10.9,3.4,10.9,10.1c0,3.2-1,5.8-3,7.7c-2,1.9-4.7,2.9-8.1,2.9H225.9z M228.4,38.5
			v16.3h3.1c2.7,0,4.8-0.7,6.3-2.2c1.5-1.5,2.3-3.5,2.3-6.2c0-5.3-2.8-7.9-8.5-7.9H228.4z"/>
		<rect x="131.9" y="0" class="st5" width="1.5" height="57"/>
		<path class="st4" d="M181,26.5h-5.9V10.7c0-1.7,0.1-3.6,0.2-5.7h-0.1c-0.3,1.6-0.6,2.8-0.8,3.5l-6.2,18h-4.9L157,8.7
			c-0.2-0.5-0.4-1.7-0.8-3.7H156c0.2,2.6,0.2,4.9,0.2,6.9v14.7h-5.4V0h8.7l5.4,15.7c0.4,1.3,0.7,2.5,0.9,3.8h0.1
			c0.3-1.5,0.7-2.7,1.1-3.8L172.5,0h8.5V26.5z"/>
		<polygon class="st4" points="203,26.5 187.1,26.5 187.1,0 202.4,0 202.4,4.9 193,4.9 193,10.8 201.7,10.8 201.7,15.6 193,15.6 
			193,21.7 203,21.7 		"/>
		<path class="st4" d="M229.5,26.5h-6.9l-4.1-6.8c-0.3-0.5-0.6-1-0.9-1.4c-0.3-0.4-0.6-0.8-0.9-1c-0.3-0.3-0.6-0.5-0.9-0.7
			c-0.3-0.2-0.7-0.2-1-0.2h-1.6v10.2h-6V0h9.5c6.4,0,9.7,2.4,9.7,7.2c0,0.9-0.1,1.8-0.4,2.6c-0.3,0.8-0.7,1.5-1.2,2.1
			c-0.5,0.6-1.1,1.2-1.9,1.6c-0.7,0.5-1.6,0.8-2.4,1.1v0.1c0.4,0.1,0.8,0.3,1.1,0.6c0.4,0.3,0.7,0.6,1.1,1c0.3,0.4,0.7,0.8,1,1.2
			c0.3,0.4,0.6,0.8,0.9,1.2L229.5,26.5z M213.2,4.5v7.4h2.6c1.3,0,2.3-0.4,3.1-1.1c0.8-0.8,1.2-1.7,1.2-2.8c0-2.3-1.4-3.5-4.2-3.5
			H213.2z"/>
		<rect x="232" y="0" class="st4" width="6" height="26.5"/>
		<path class="st4" d="M244,26.5V0h9.4c9.4,0,14.1,4.3,14.1,12.9c0,4.1-1.3,7.4-3.9,9.9c-2.6,2.5-6,3.7-10.3,3.7H244z M249.9,4.9
			v16.8h3c2.6,0,4.6-0.8,6.1-2.3c1.5-1.6,2.2-3.7,2.2-6.3c0-2.5-0.7-4.5-2.2-6c-1.5-1.4-3.5-2.2-6.2-2.2H249.9z"/>
		<rect x="271.9" y="0" class="st4" width="6" height="26.5"/>
		<path class="st4" d="M307.2,26.5h-6.5l-1.9-5.9h-9.4l-1.9,5.9H281L290.7,0h7.1L307.2,26.5z M297.5,16l-2.8-8.9
			c-0.2-0.7-0.4-1.5-0.4-2.4H294c-0.1,0.8-0.2,1.5-0.5,2.3l-2.9,9H297.5z"/>
		<path class="st4" d="M334.4,26.5h-6L317.4,9.9c-0.6-1-1.1-1.7-1.3-2.2H316c0.1,0.9,0.1,2.4,0.1,4.3v14.6h-5.6V0h6.4l10.5,16.1
			c0.5,0.7,0.9,1.5,1.3,2.2h0.1c-0.1-0.6-0.1-1.8-0.1-3.6V0h5.6V26.5z"/>
	</g>
</g>
</svg>
