<?xml version="1.0" encoding="utf-8"?>
<!-- Generator: Adobe Illustrator 22.1.0, SVG Export Plug-In . SVG Version: 6.00 Build 0)  -->
<svg version="1.1" id="Calque_1" xmlns="http://www.w3.org/2000/svg" xmlns:xlink="http://www.w3.org/1999/xlink" x="0px" y="0px"
	 viewBox="0 0 723.8 725.9" style="enable-background:new 0 0 723.8 725.9;" xml:space="preserve">
<style type="text/css">
	.st0{fill:#F06923;}
	.st1{font-family:'Georgia-BoldItalic';}
	.st2{font-size:21px;}
	.st3{opacity:0.4;fill:#F06923;}
	.st4{opacity:0.6;fill:#F06923;}
	.st5{opacity:0.8;fill:#F06923;}
	.st6{opacity:0.1;fill:#F06923;}
	.st7{fill:#FFFFFF;}
	.st8{font-family:'LibreFranklin-Medium';}
	.st9{font-size:17.9482px;}
</style>
<g>
	<rect x="30.8" y="89" class="st0" width="3" height="604"/>
	<rect x="30.8" y="690" class="st0" width="604" height="3"/>
	<polygon class="st0" points="634.8,683.6 655.2,691.8 634.8,700 	"/>
	<text transform="matrix(0 -1 1 0 17.7754 378.3008)" class="st0 st1 st2">Compléxité de l’ingénierie</text>
	<text transform="matrix(1 0 0 1 357.4258 719.4971)" class="st0 st1 st2">Intensité de modification</text>
	<path class="st3" d="M30.8,126.1v126.1c243,0,440.7,197.8,440.7,440.8h126.1C597.6,380,343.8,126.1,30.8,126.1z"/>
	<path class="st4" d="M30.8,252.2v126.1c174,0,314.6,140.7,314.6,314.7h126.1C471.5,450,273.8,252.2,30.8,252.2z"/>
	<path class="st5" d="M30.8,378.3v126.1c104,0,188.5,84.6,188.5,188.6h126.1C345.4,519,204.8,378.3,30.8,378.3z"/>
	<path class="st0" d="M219.3,693c0-104-84.5-188.6-188.5-188.6V693H219.3z"/>
	<path class="st6" d="M30.8,0v126.1c313,0,566.9,253.9,566.9,566.9h126.1C723.8,310,413.8,0,30.8,0z"/>
	<text transform="matrix(1.0002 0 0 1 61.8599 613.6074)"><tspan x="0" y="0" class="st7 st8 st9">Serveur local</tspan><tspan x="0" y="21.5" class="st7 st8 st9">de fichiers</tspan></text>
	<text transform="matrix(1.0002 0 0 1 170.9214 504.5635)"><tspan x="0" y="0" class="st7 st8 st9">Gestion </tspan><tspan x="0" y="21.5" class="st7 st8 st9">des dessins</tspan><tspan x="0" y="43.1" class="st7 st8 st9">et documents </tspan></text>
	<text transform="matrix(1.0002 0 0 1 348.6138 333.834)"><tspan x="0" y="0" class="st7 st8 st9">Gestion du </tspan><tspan x="0" y="21.5" class="st7 st8 st9">cycle de vie</tspan><tspan x="0" y="43.1" class="st7 st8 st9">des actifs (ALIM)</tspan></text>
	<text transform="matrix(1.0002 0 0 1 256.7808 418.7217)"><tspan x="0" y="0" class="st7 st8 st9">Gestion des</tspan><tspan x="0" y="21.5" class="st7 st8 st9">informations</tspan><tspan x="0" y="43.1" class="st7 st8 st9">d’ingénierie</tspan></text>
	<polygon class="st0" points="23.8,89 32,68.5 40.1,89 	"/>
</g>
</svg>
