<?xml version="1.0" encoding="utf-8"?>
<!-- Generator: Adobe Illustrator 22.1.0, SVG Export Plug-In . SVG Version: 6.00 Build 0)  -->
<svg version="1.1" id="Calque_1" xmlns="http://www.w3.org/2000/svg" xmlns:xlink="http://www.w3.org/1999/xlink" x="0px" y="0px"
	 viewBox="0 0 221 145" style="enable-background:new 0 0 221 145;" xml:space="preserve">
<style type="text/css">
	.st0{fill:#FBB276;}
	.st1{fill:#FFFFFF;}
	.st2{fill:#F89852;}
	.st3{fill:#F57E20;}
</style>
<g>
	<path class="st0" d="M190,95c0,10.5-8.5,19-19,19H19c-10.5,0-19-8.5-19-19V19C0,8.5,8.5,0,19,0h152c10.5,0,19,8.5,19,19V95z"/>
	<g>
		<g>
			
				<rect x="69.7" y="10.6" transform="matrix(0.7071 -0.7071 0.7071 0.7071 1.2164 65.3478)" class="st1" width="19.6" height="41.2"/>
			
				<rect x="39.3" y="10.6" transform="matrix(0.7071 -0.7071 0.7071 0.7071 -7.6898 43.8473)" class="st1" width="19.6" height="41.2"/>
			
				<rect x="16.4" y="29" transform="matrix(0.7071 -0.7072 0.7072 0.7071 -19.7658 29.9153)" class="st1" width="19.7" height="19.7"/>
			<path class="st1" d="M56.7,53L56.7,53L56.7,53z"/>
		</g>
	</g>
	<path class="st2" d="M206,111c0,10.5-8.5,19-19,19H35c-10.5,0-19-8.5-19-19V35c0-10.5,8.5-19,19-19h152c10.5,0,19,8.5,19,19V111z"
		/>
	<g>
		<g>
			
				<rect x="85.4" y="26.3" transform="matrix(0.7071 -0.7071 0.7071 0.7071 -5.3045 81.0914)" class="st1" width="19.6" height="41.2"/>
			
				<rect x="55" y="26.3" transform="matrix(0.7071 -0.7071 0.7071 0.7071 -14.2108 59.5913)" class="st1" width="19.6" height="41.2"/>
			
				<rect x="32.1" y="44.7" transform="matrix(0.7071 -0.7071 0.7071 0.7071 -26.2864 45.6573)" class="st1" width="19.7" height="19.7"/>
			<path class="st1" d="M72.5,68.7L72.5,68.7L72.5,68.7z"/>
		</g>
	</g>
	<path class="st3" d="M221,126c0,10.5-8.5,19-19,19H50c-10.5,0-19-8.5-19-19V50c0-10.5,8.5-19,19-19h152c10.5,0,19,8.5,19,19V126z"
		/>
	<g>
		<g>
			
				<rect x="101.2" y="42.1" transform="matrix(0.7071 -0.7071 0.7071 0.7071 -11.8256 96.8341)" class="st1" width="19.6" height="41.2"/>
			
				<rect x="70.8" y="42.1" transform="matrix(0.7071 -0.7071 0.7071 0.7071 -20.7318 75.3352)" class="st1" width="19.6" height="41.2"/>
			
				<rect x="47.9" y="60.5" transform="matrix(0.7071 -0.7072 0.7072 0.7071 -32.8079 61.4045)" class="st1" width="19.7" height="19.7"/>
			<path class="st1" d="M88.2,84.5L88.2,84.5L88.2,84.5z"/>
		</g>
	</g>
</g>
</svg>
