<?xml version="1.0" encoding="utf-8"?>
<!-- Generator: Adobe Illustrator 22.1.0, SVG Export Plug-In . SVG Version: 6.00 Build 0)  -->
<svg version="1.1" id="Calque_1" xmlns="http://www.w3.org/2000/svg" xmlns:xlink="http://www.w3.org/1999/xlink" x="0px" y="0px"
	 viewBox="0 0 253.2 43.2" style="enable-background:new 0 0 253.2 43.2;" xml:space="preserve">
<style type="text/css">
	.st0{fill:#5CB347;}
	.st1{fill:#81C77D;}
	.st2{fill:#A9D7A7;}
	.st3{fill:#F57D20;}
	.st4{fill:#A7A9AC;}
	.st5{fill:#414042;}
</style>
<g>
	<g>
		
			<rect x="57.2" y="0.9" transform="matrix(0.7071 -0.7071 0.7071 0.7071 4.4514 53.6151)" class="st0" width="19.5" height="41.1"/>
		
			<rect x="26.9" y="0.9" transform="matrix(0.7071 -0.7071 0.7071 0.7071 -4.425 32.1861)" class="st1" width="19.5" height="41.1"/>
		
			<rect x="4.1" y="19.2" transform="matrix(0.7071 -0.7071 0.7071 0.7071 -16.4573 18.3024)" class="st2" width="19.6" height="19.6"/>
		<path class="st3" d="M44.3,43.2L44.3,43.2L44.3,43.2z"/>
		<rect x="99.8" class="st4" width="1.2" height="43.2"/>
		<g>
			<path class="st5" d="M137.1,20.1h-4.5v-12c0-1.3,0.1-2.7,0.2-4.3h-0.1c-0.2,1.2-0.4,2.1-0.6,2.7l-4.7,13.7h-3.7l-4.8-13.5
				c-0.1-0.4-0.3-1.3-0.6-2.8h-0.1c0.1,2,0.2,3.7,0.2,5.2v11.1h-4.1V0h6.6l4.1,11.9c0.3,1,0.6,1.9,0.7,2.9h0.1
				c0.3-1.1,0.5-2.1,0.8-2.9L130.6,0h6.5V20.1z"/>
			<polygon class="st5" points="153.7,20.1 141.6,20.1 141.6,0 153.2,0 153.2,3.7 146.2,3.7 146.2,8.2 152.7,8.2 152.7,11.8 
				146.2,11.8 146.2,16.4 153.7,16.4 			"/>
			<path class="st5" d="M173.7,20.1h-5.2l-3.1-5.2c-0.2-0.4-0.5-0.7-0.7-1.1c-0.2-0.3-0.4-0.6-0.7-0.8c-0.2-0.2-0.4-0.4-0.7-0.5
				c-0.2-0.1-0.5-0.2-0.8-0.2h-1.2v7.7h-4.5V0h7.2c4.9,0,7.3,1.8,7.3,5.5c0,0.7-0.1,1.3-0.3,1.9c-0.2,0.6-0.5,1.1-0.9,1.6
				c-0.4,0.5-0.9,0.9-1.4,1.2c-0.6,0.3-1.2,0.6-1.9,0.8v0.1c0.3,0.1,0.6,0.2,0.9,0.5c0.3,0.2,0.6,0.5,0.8,0.7
				c0.3,0.3,0.5,0.6,0.8,0.9c0.2,0.3,0.5,0.6,0.7,0.9L173.7,20.1z M161.4,3.4V9h2c1,0,1.8-0.3,2.3-0.8c0.6-0.6,0.9-1.3,0.9-2.1
				c0-1.8-1.1-2.6-3.2-2.6H161.4z"/>
			<rect x="175.6" y="0" class="st5" width="4.5" height="20.1"/>
			<path class="st5" d="M184.7,20.1V0h7.1c7.1,0,10.7,3.3,10.7,9.8c0,3.1-1,5.6-2.9,7.5c-1.9,1.9-4.5,2.8-7.8,2.8H184.7z M189.2,3.7
				v12.7h2.2c2,0,3.5-0.6,4.6-1.8c1.1-1.2,1.7-2.8,1.7-4.8c0-1.9-0.6-3.4-1.7-4.5c-1.1-1.1-2.7-1.6-4.7-1.6H189.2z"/>
			<rect x="205.9" y="0" class="st5" width="4.5" height="20.1"/>
			<path class="st5" d="M232.6,20.1h-4.9l-1.4-4.5h-7.1l-1.4,4.5h-4.9L220.1,0h5.4L232.6,20.1z M225.2,12.1l-2.2-6.8
				c-0.2-0.5-0.3-1.1-0.3-1.8h-0.1c0,0.6-0.2,1.2-0.4,1.8l-2.2,6.8H225.2z"/>
			<path class="st5" d="M253.2,20.1h-4.6l-8.3-12.6c-0.5-0.7-0.8-1.3-1-1.7h-0.1c0.1,0.7,0.1,1.8,0.1,3.2v11h-4.3V0h4.9l8,12.2
				c0.4,0.6,0.7,1.1,1,1.6h0.1c-0.1-0.5-0.1-1.4-0.1-2.8V0h4.3V20.1z"/>
		</g>
	</g>
	<g>
		<path class="st5" d="M127.2,35.8c-0.1-2.3-0.3-5-0.2-7h-0.1c-0.6,1.9-1.2,3.9-2.1,6.2l-2.9,7.9h-1.6l-2.6-7.8
			c-0.8-2.3-1.4-4.4-1.9-6.3h0c0,2-0.2,4.8-0.3,7.2l-0.4,7h-2l1.1-16.3h2.7l2.8,7.9c0.7,2,1.2,3.8,1.6,5.5h0.1
			c0.4-1.6,1-3.4,1.7-5.5l2.9-7.9h2.7l1,16.3h-2.1L127.2,35.8z"/>
		<path class="st5" d="M143.6,37c0,4.3-3,6.2-5.8,6.2c-3.2,0-5.6-2.3-5.6-6c0-3.9,2.6-6.2,5.8-6.2C141.3,30.9,143.6,33.4,143.6,37z
			 M134.3,37.1c0,2.6,1.5,4.5,3.6,4.5c2,0,3.6-1.9,3.6-4.5c0-2-1-4.5-3.5-4.5C135.4,32.5,134.3,34.9,134.3,37.1z"/>
		<path class="st5" d="M146.2,42.9c0-0.8,0.1-2,0.1-3V25.8h2.1v7.3h0c0.8-1.3,2.1-2.2,4-2.2c2.9,0,5,2.4,4.9,6
			c0,4.2-2.6,6.3-5.2,6.3c-1.7,0-3-0.7-3.9-2.2h-0.1l-0.1,1.9H146.2z M148.4,38.2c0,0.3,0,0.5,0.1,0.8c0.4,1.5,1.6,2.5,3.2,2.5
			c2.2,0,3.6-1.8,3.6-4.5c0-2.3-1.2-4.4-3.5-4.4c-1.5,0-2.8,1-3.2,2.6c0,0.2-0.1,0.5-0.1,0.9V38.2z"/>
		<path class="st5" d="M162.4,27.9c0,0.7-0.5,1.3-1.4,1.3c-0.7,0-1.3-0.6-1.3-1.3c0-0.8,0.6-1.3,1.3-1.3
			C161.9,26.6,162.4,27.2,162.4,27.9z M160,42.9V31.2h2.1v11.7H160z"/>
		<path class="st5" d="M165.7,25.8h2.1v17.2h-2.1V25.8z"/>
		<path class="st5" d="M172.6,37.4c0,2.9,1.9,4.1,4,4.1c1.5,0,2.4-0.3,3.2-0.6l0.4,1.5c-0.8,0.3-2,0.7-3.9,0.7
			c-3.6,0-5.8-2.4-5.8-5.9c0-3.5,2.1-6.3,5.5-6.3c3.8,0,4.8,3.4,4.8,5.5c0,0.4,0,0.8-0.1,1H172.6z M178.8,35.9
			c0-1.4-0.6-3.5-2.9-3.5c-2.2,0-3.1,2-3.3,3.5H178.8z"/>
	</g>
</g>
</svg>
