<?xml version="1.0" encoding="utf-8"?>
<!-- Generator: Adobe Illustrator 22.1.0, SVG Export Plug-In . SVG Version: 6.00 Build 0)  -->
<svg version="1.1" id="Calque_1" xmlns="http://www.w3.org/2000/svg" xmlns:xlink="http://www.w3.org/1999/xlink" x="0px" y="0px"
	 viewBox="0 0 194 118" style="enable-background:new 0 0 194 118;" xml:space="preserve">
<style type="text/css">
	.st0{fill:none;stroke:#F06923;stroke-width:4;stroke-miterlimit:10;}
	.st1{fill:#F06923;}
	.st2{font-family:'LibreFranklin-Medium';}
	.st3{font-size:13.8911px;}
</style>
<g>
	<path class="st0" d="M192,97c0,10.5-8.5,19-19,19H21c-10.5,0-19-8.5-19-19V21C2,10.5,10.5,2,21,2h152c10.5,0,19,8.5,19,19V97z"/>
	<g>
		
			<rect x="73.2" y="10.9" transform="matrix(0.7073 -0.7069 0.7069 0.7073 1.9751 67.9014)" class="st1" width="19.6" height="41.2"/>
		
			<rect x="42.8" y="10.9" transform="matrix(0.7073 -0.707 0.707 0.7073 -6.9204 46.4041)" class="st1" width="19.6" height="41.2"/>
		
			<rect x="19.9" y="29.3" transform="matrix(0.7073 -0.7069 0.7069 0.7073 -18.9868 32.4684)" class="st1" width="19.7" height="19.7"/>
		<path class="st1" d="M60.2,53.4L60.2,53.4L60.2,53.4z"/>
	</g>
	<text transform="matrix(1.0002 0 0 1 14.9521 81.6143)" class="st1 st2 st3">Pierre RIEGERT</text>
</g>
</svg>
