<?xml version="1.0" encoding="utf-8"?>
<!-- Generator: Adobe Illustrator 22.1.0, SVG Export Plug-In . SVG Version: 6.00 Build 0)  -->
<svg version="1.1" id="Calque_1" xmlns="http://www.w3.org/2000/svg" xmlns:xlink="http://www.w3.org/1999/xlink" x="0px" y="0px"
	 viewBox="0 0 253.2 43.5" style="enable-background:new 0 0 253.2 43.5;" xml:space="preserve">
<style type="text/css">
	.st0{fill:#5CB347;}
	.st1{fill:#81C77D;}
	.st2{fill:#A9D7A7;}
	.st3{fill:#F57D20;}
	.st4{fill:#A7A9AC;}
	.st5{fill:#414042;}
</style>
<g>
	<rect x="57.2" y="0.9" transform="matrix(0.7071 -0.7071 0.7071 0.7071 4.4517 53.6159)" class="st0" width="19.5" height="41.1"/>
	
		<rect x="26.9" y="0.9" transform="matrix(0.7071 -0.7071 0.7071 0.7071 -4.4248 32.1869)" class="st1" width="19.5" height="41.1"/>
	
		<rect x="4.1" y="19.2" transform="matrix(0.7071 -0.7071 0.7071 0.7071 -16.4572 18.3021)" class="st2" width="19.6" height="19.6"/>
	<path class="st3" d="M44.3,43.2L44.3,43.2L44.3,43.2z"/>
	<rect x="99.8" class="st4" width="1.2" height="43.2"/>
	<g>
		<path class="st5" d="M137.1,20.1h-4.5v-12c0-1.3,0.1-2.7,0.2-4.3h-0.1c-0.2,1.2-0.4,2.1-0.6,2.7l-4.7,13.7h-3.7l-4.8-13.5
			c-0.1-0.4-0.3-1.3-0.6-2.8h-0.1c0.1,2,0.2,3.7,0.2,5.2v11.1h-4.1V0h6.6l4.1,11.9c0.3,1,0.6,1.9,0.7,2.9h0.1
			c0.3-1.1,0.5-2.1,0.8-2.9L130.6,0h6.5V20.1z"/>
		<polygon class="st5" points="153.7,20.1 141.6,20.1 141.6,0 153.2,0 153.2,3.7 146.2,3.7 146.2,8.2 152.7,8.2 152.7,11.8 
			146.2,11.8 146.2,16.4 153.7,16.4 		"/>
		<path class="st5" d="M173.7,20.1h-5.2l-3.1-5.2c-0.2-0.4-0.5-0.7-0.7-1.1c-0.2-0.3-0.4-0.6-0.7-0.8c-0.2-0.2-0.4-0.4-0.7-0.5
			c-0.2-0.1-0.5-0.2-0.8-0.2h-1.2v7.7h-4.5V0h7.2c4.9,0,7.3,1.8,7.3,5.5c0,0.7-0.1,1.3-0.3,1.9c-0.2,0.6-0.5,1.1-0.9,1.6
			c-0.4,0.5-0.9,0.9-1.4,1.2c-0.6,0.3-1.2,0.6-1.9,0.8v0.1c0.3,0.1,0.6,0.2,0.9,0.5c0.3,0.2,0.6,0.5,0.8,0.7
			c0.3,0.3,0.5,0.6,0.8,0.9c0.2,0.3,0.5,0.6,0.7,0.9L173.7,20.1z M161.4,3.4V9h2c1,0,1.8-0.3,2.3-0.8c0.6-0.6,0.9-1.3,0.9-2.1
			c0-1.8-1.1-2.6-3.2-2.6H161.4z"/>
		<rect x="175.6" y="0" class="st5" width="4.5" height="20.1"/>
		<path class="st5" d="M184.7,20.1V0h7.1c7.1,0,10.7,3.3,10.7,9.8c0,3.1-1,5.6-2.9,7.5c-1.9,1.9-4.5,2.8-7.8,2.8H184.7z M189.2,3.7
			v12.7h2.2c2,0,3.5-0.6,4.6-1.8c1.1-1.2,1.7-2.8,1.7-4.8c0-1.9-0.6-3.4-1.7-4.5c-1.1-1.1-2.7-1.6-4.7-1.6H189.2z"/>
		<rect x="205.9" y="0" class="st5" width="4.5" height="20.1"/>
		<path class="st5" d="M232.6,20.1h-4.9l-1.4-4.5h-7.1l-1.4,4.5h-4.9L220.1,0h5.4L232.6,20.1z M225.2,12.1l-2.2-6.8
			c-0.2-0.5-0.3-1.1-0.3-1.8h-0.1c0,0.6-0.2,1.2-0.3,1.8l-2.2,6.8H225.2z"/>
		<path class="st5" d="M253.2,20.1h-4.6l-8.3-12.6c-0.5-0.7-0.8-1.3-1-1.7h-0.1c0.1,0.7,0.1,1.8,0.1,3.2v11h-4.3V0h4.9l8,12.2
			c0.4,0.6,0.7,1.1,1,1.6h0.1c-0.1-0.5-0.1-1.4-0.1-2.8V0h4.3V20.1z"/>
		<path class="st5" d="M116,37.3v5.9h-1.8V27.5h4.3c1.7,0,3,0.4,3.9,1.2c0.9,0.8,1.4,2,1.4,3.5c0,1.5-0.5,2.7-1.5,3.7
			c-1,0.9-2.4,1.4-4.2,1.4H116z M116,29.2v6.4h1.9c1.3,0,2.2-0.3,2.9-0.9c0.7-0.6,1-1.4,1-2.5c0-2.1-1.2-3.1-3.7-3.1H116z"/>
		<path class="st5" d="M130.4,43.5c-1.7,0-3-0.5-4-1.6c-1-1-1.5-2.4-1.5-4.2c0-1.9,0.5-3.4,1.5-4.4c1-1.1,2.4-1.6,4.2-1.6
			c1.7,0,3,0.5,3.9,1.5c0.9,1,1.4,2.5,1.4,4.3c0,1.8-0.5,3.2-1.5,4.3C133.4,42.9,132.1,43.5,130.4,43.5 M130.5,33.2
			c-1.2,0-2.1,0.4-2.7,1.2c-0.7,0.8-1,1.9-1,3.3c0,1.3,0.3,2.4,1,3.1c0.7,0.8,1.6,1.2,2.7,1.2c1.2,0,2.1-0.4,2.7-1.1
			c0.6-0.8,0.9-1.8,0.9-3.2c0-1.4-0.3-2.5-0.9-3.2C132.6,33.6,131.7,33.2,130.5,33.2"/>
		<path class="st5" d="M144.7,33.8c-0.3-0.2-0.8-0.4-1.4-0.4c-0.8,0-1.4,0.4-1.9,1.1c-0.5,0.7-0.8,1.7-0.8,3v5.7h-1.8V32h1.8v2.3h0
			c0.3-0.8,0.6-1.4,1.2-1.8c0.5-0.4,1.1-0.7,1.8-0.7c0.5,0,0.8,0.1,1.1,0.2V33.8z"/>
		<path class="st5" d="M152.5,43.1c-0.4,0.2-1,0.4-1.7,0.4c-2,0-2.9-1.1-2.9-3.3v-6.6h-1.9V32h1.9v-2.7l1.8-0.6V32h2.8v1.5h-2.8v6.3
			c0,0.8,0.1,1.3,0.4,1.6c0.3,0.3,0.7,0.5,1.3,0.5c0.5,0,0.8-0.1,1.2-0.4V43.1z"/>
		<path class="st5" d="M162.9,43.2h-1.8v-1.8h0c-0.8,1.3-1.9,2-3.5,2c-1.1,0-2-0.3-2.6-0.9c-0.6-0.6-0.9-1.4-0.9-2.4
			c0-2.1,1.2-3.3,3.7-3.7l3.4-0.5c0-1.9-0.8-2.9-2.3-2.9c-1.4,0-2.6,0.5-3.7,1.4v-1.8c1.1-0.7,2.4-1.1,3.8-1.1c2.6,0,4,1.4,4,4.2
			V43.2z M161.1,37.5l-2.7,0.4c-0.8,0.1-1.5,0.3-1.9,0.6c-0.4,0.3-0.6,0.8-0.6,1.6c0,0.5,0.2,1,0.6,1.3c0.4,0.3,0.9,0.5,1.6,0.5
			c0.9,0,1.6-0.3,2.2-0.9c0.6-0.6,0.9-1.4,0.9-2.4V37.5z"/>
		<rect x="166.3" y="26.6" class="st5" width="1.8" height="16.6"/>
	</g>
</g>
</svg>
