<?xml version="1.0" encoding="utf-8"?>
<!-- Generator: Adobe Illustrator 22.1.0, SVG Export Plug-In . SVG Version: 6.00 Build 0)  -->
<svg version="1.1" id="Calque_1" xmlns="http://www.w3.org/2000/svg" xmlns:xlink="http://www.w3.org/1999/xlink" x="0px" y="0px"
	 viewBox="0 0 334.4 57.3" style="enable-background:new 0 0 334.4 57.3;" xml:space="preserve">
<style type="text/css">
	.st0{fill:#12A9E1;}
	.st1{fill:#63C2E9;}
	.st2{fill:#96D9EE;}
	.st3{fill:#F57D20;}
	.st4{clip-path:url(#SVGID_2_);fill:#414042;}
	.st5{clip-path:url(#SVGID_2_);fill:#A7A9AC;}
</style>
<g>
	<rect x="75.5" y="1.2" transform="matrix(0.7071 -0.7071 0.7071 0.7071 5.8804 70.8145)" class="st0" width="25.8" height="54.3"/>
	
		<rect x="35.5" y="1.2" transform="matrix(0.7071 -0.7071 0.7071 0.7071 -5.8433 42.5133)" class="st1" width="25.8" height="54.3"/>
	<polygon class="st2" points="0,38.3 0,38.3 18.3,56.6 36.6,38.3 18.3,20 	"/>
	<path class="st3" d="M58.5,57L58.5,57L58.5,57z"/>
	<g>
		<defs>
			<rect id="SVGID_1_" width="334.4" height="57.3"/>
		</defs>
		<clipPath id="SVGID_2_">
			<use xlink:href="#SVGID_1_"  style="overflow:visible;"/>
		</clipPath>
		<path class="st4" d="M150.8,56.2v-2.9c0.3,0.3,0.7,0.5,1.2,0.8c0.5,0.2,0.9,0.4,1.4,0.6c0.5,0.2,1,0.3,1.5,0.4
			c0.5,0.1,1,0.1,1.4,0.1c1.5,0,2.6-0.3,3.3-0.8c0.7-0.6,1.1-1.3,1.1-2.4c0-0.6-0.1-1-0.4-1.5c-0.2-0.4-0.6-0.8-1-1.1
			c-0.4-0.3-0.9-0.7-1.5-1c-0.6-0.3-1.2-0.6-1.9-1c-0.7-0.4-1.4-0.7-2-1.1c-0.6-0.4-1.2-0.8-1.6-1.2c-0.5-0.5-0.8-1-1.1-1.5
			c-0.3-0.6-0.4-1.2-0.4-2c0-0.9,0.2-1.8,0.6-2.5c0.4-0.7,1-1.3,1.6-1.7c0.7-0.5,1.4-0.8,2.3-1c0.9-0.2,1.7-0.3,2.6-0.3
			c2,0,3.5,0.2,4.5,0.7v2.7c-1.2-0.8-2.8-1.3-4.7-1.3c-0.5,0-1.1,0.1-1.6,0.2c-0.5,0.1-1,0.3-1.4,0.5c-0.4,0.2-0.8,0.6-1,1
			c-0.3,0.4-0.4,0.9-0.4,1.4c0,0.5,0.1,1,0.3,1.4c0.2,0.4,0.5,0.7,0.9,1.1c0.4,0.3,0.9,0.6,1.4,0.9c0.6,0.3,1.2,0.6,1.9,1
			c0.7,0.4,1.4,0.8,2.1,1.2c0.7,0.4,1.2,0.9,1.7,1.3c0.5,0.5,0.9,1,1.2,1.6c0.3,0.6,0.4,1.3,0.4,2c0,1-0.2,1.9-0.6,2.6
			c-0.4,0.7-0.9,1.3-1.6,1.7c-0.7,0.4-1.5,0.8-2.3,1c-0.9,0.2-1.8,0.3-2.8,0.3c-0.3,0-0.7,0-1.2-0.1c-0.5-0.1-1-0.1-1.5-0.2
			c-0.5-0.1-1-0.2-1.4-0.4C151.4,56.5,151.1,56.3,150.8,56.2"/>
		<polygon class="st4" points="178.4,57 167.5,57 167.5,36.3 178,36.3 178,38.5 169.9,38.5 169.9,45.4 177.4,45.4 177.4,47.6 
			169.9,47.6 169.9,54.8 178.4,54.8 		"/>
		<path class="st4" d="M197.3,57h-2.9l-3.5-5.8c-0.3-0.5-0.6-1-0.9-1.4c-0.3-0.4-0.6-0.7-0.9-0.9c-0.3-0.2-0.6-0.4-1-0.5
			c-0.4-0.1-0.8-0.2-1.2-0.2h-2V57h-2.4V36.3h6.2c0.9,0,1.7,0.1,2.5,0.3c0.8,0.2,1.4,0.6,2,1c0.6,0.5,1,1,1.3,1.7
			c0.3,0.7,0.5,1.5,0.5,2.4c0,0.7-0.1,1.4-0.3,2c-0.2,0.6-0.5,1.1-0.9,1.6c-0.4,0.5-0.9,0.9-1.4,1.2c-0.6,0.3-1.2,0.6-1.9,0.8v0.1
			c0.3,0.2,0.6,0.3,0.9,0.5c0.3,0.2,0.5,0.4,0.7,0.7c0.2,0.3,0.5,0.6,0.7,0.9c0.2,0.3,0.5,0.7,0.8,1.2L197.3,57z M184.9,38.5V46h3.3
			c0.6,0,1.2-0.1,1.7-0.3c0.5-0.2,1-0.4,1.3-0.8c0.4-0.3,0.7-0.8,0.9-1.3c0.2-0.5,0.3-1,0.3-1.7c0-1.1-0.4-2-1.1-2.6
			c-0.7-0.6-1.8-0.9-3.1-0.9H184.9z"/>
		<path class="st4" d="M215.5,36.3L207.8,57h-2.7l-7.5-20.7h2.7l5.7,16.4c0.2,0.5,0.3,1.1,0.4,1.8h0.1c0.1-0.6,0.2-1.2,0.5-1.9
			l5.8-16.4H215.5z"/>
		<polygon class="st4" points="229.4,57 218.5,57 218.5,36.3 229,36.3 229,38.5 220.9,38.5 220.9,45.4 228.3,45.4 228.3,47.6 
			220.9,47.6 220.9,54.8 229.4,54.8 		"/>
		<path class="st4" d="M248.2,57h-2.9l-3.5-5.8c-0.3-0.5-0.6-1-0.9-1.4c-0.3-0.4-0.6-0.7-0.9-0.9c-0.3-0.2-0.6-0.4-1-0.5
			c-0.4-0.1-0.8-0.2-1.2-0.2h-2V57h-2.4V36.3h6.2c0.9,0,1.7,0.1,2.5,0.3c0.8,0.2,1.4,0.6,2,1c0.6,0.5,1,1,1.3,1.7s0.5,1.5,0.5,2.4
			c0,0.7-0.1,1.4-0.3,2c-0.2,0.6-0.5,1.1-0.9,1.6c-0.4,0.5-0.9,0.9-1.4,1.2c-0.6,0.3-1.2,0.6-1.9,0.8v0.1c0.3,0.2,0.6,0.3,0.9,0.5
			c0.3,0.2,0.5,0.4,0.7,0.7c0.2,0.3,0.5,0.6,0.7,0.9c0.2,0.3,0.5,0.7,0.8,1.2L248.2,57z M235.8,38.5V46h3.3c0.6,0,1.2-0.1,1.7-0.3
			c0.5-0.2,1-0.4,1.3-0.8c0.4-0.3,0.7-0.8,0.9-1.3c0.2-0.5,0.3-1,0.3-1.7c0-1.1-0.4-2-1.1-2.6c-0.7-0.6-1.8-0.9-3.1-0.9H235.8z"/>
		<rect x="131.9" class="st5" width="1.5" height="57"/>
		<path class="st4" d="M181,26.5h-5.9V10.7c0-1.7,0.1-3.6,0.2-5.7h-0.1c-0.3,1.6-0.6,2.8-0.8,3.5l-6.2,18h-4.9L157,8.7
			c-0.2-0.5-0.4-1.7-0.8-3.7H156c0.2,2.6,0.2,4.9,0.2,6.9v14.7h-5.4V0h8.7l5.4,15.7c0.4,1.3,0.7,2.5,0.9,3.8h0.1
			c0.3-1.5,0.7-2.7,1.1-3.8L172.5,0h8.5V26.5z"/>
		<polygon class="st4" points="203,26.5 187.1,26.5 187.1,0 202.4,0 202.4,4.9 193,4.9 193,10.8 201.7,10.8 201.7,15.6 193,15.6 
			193,21.7 203,21.7 		"/>
		<path class="st4" d="M229.5,26.5h-6.9l-4.1-6.8c-0.3-0.5-0.6-1-0.9-1.4c-0.3-0.4-0.6-0.8-0.9-1c-0.3-0.3-0.6-0.5-0.9-0.7
			c-0.3-0.2-0.7-0.2-1-0.2h-1.6v10.2h-6V0h9.5c6.4,0,9.7,2.4,9.7,7.2c0,0.9-0.1,1.8-0.4,2.6c-0.3,0.8-0.7,1.5-1.2,2.1
			c-0.5,0.6-1.1,1.2-1.9,1.6c-0.7,0.5-1.5,0.8-2.4,1.1v0.1c0.4,0.1,0.8,0.3,1.1,0.6c0.4,0.3,0.7,0.6,1.1,1c0.3,0.4,0.7,0.8,1,1.2
			c0.3,0.4,0.6,0.8,0.9,1.2L229.5,26.5z M213.2,4.5v7.4h2.6c1.3,0,2.3-0.4,3.1-1.1c0.8-0.8,1.2-1.7,1.2-2.8c0-2.3-1.4-3.5-4.2-3.5
			H213.2z"/>
		<rect x="232" y="0" class="st4" width="6" height="26.5"/>
		<path class="st4" d="M244,26.5V0h9.4c9.4,0,14.1,4.3,14.1,12.9c0,4.1-1.3,7.4-3.9,9.9c-2.6,2.5-6,3.7-10.3,3.7H244z M249.9,4.9
			v16.8h3c2.6,0,4.6-0.8,6.1-2.3c1.5-1.6,2.2-3.7,2.2-6.3c0-2.5-0.7-4.5-2.2-6c-1.5-1.4-3.5-2.2-6.2-2.2H249.9z"/>
		<rect x="271.9" y="0" class="st4" width="6" height="26.5"/>
		<path class="st4" d="M307.2,26.5h-6.5l-1.9-5.9h-9.4l-1.9,5.9H281L290.7,0h7.1L307.2,26.5z M297.5,16l-2.8-8.9
			c-0.2-0.7-0.4-1.5-0.4-2.4H294c-0.1,0.8-0.2,1.5-0.5,2.3l-2.9,9H297.5z"/>
		<path class="st4" d="M334.4,26.5h-6L317.4,9.9c-0.6-1-1.1-1.7-1.3-2.2H316c0.1,0.9,0.1,2.4,0.1,4.3v14.6h-5.6V0h6.4l10.5,16.1
			c0.5,0.7,0.9,1.5,1.3,2.2h0.1c-0.1-0.6-0.1-1.8-0.1-3.6V0h5.6V26.5z"/>
	</g>
</g>
</svg>
