<?xml version="1.0" encoding="utf-8"?>
<!-- Generator: Adobe Illustrator 22.1.0, SVG Export Plug-In . SVG Version: 6.00 Build 0)  -->
<svg version="1.1" id="Calque_1" xmlns="http://www.w3.org/2000/svg" xmlns:xlink="http://www.w3.org/1999/xlink" x="0px" y="0px"
	 viewBox="0 0 1500 540" style="enable-background:new 0 0 1500 540;" xml:space="preserve">
<style type="text/css">
	.st0{fill:#231F20;}
</style>
<g>
	
		<rect x="352.8" y="319.4" transform="matrix(0.9848 -0.1736 0.1736 0.9848 -50.1502 79.7597)" class="st0" width="155.9" height="14.2"/>
	<rect x="360.5" y="433.6" transform="matrix(0.866 -0.5 0.5 0.866 -159.383 286.5639)" class="st0" width="189.1" height="14.2"/>
	<rect x="447.5" y="5.1" transform="matrix(0.5 -0.866 0.866 0.5 140.9845 443.5525)" class="st0" width="14.2" height="189.2"/>
	
		<rect x="424" y="136.7" transform="matrix(0.1737 -0.9848 0.9848 0.1737 145.3556 601.5179)" class="st0" width="14.2" height="154.9"/>
	<g>
		<path class="st0" d="M582,58.3l-10.8,9.1l15.3,18.3c3.5-3.1,7.1-6.2,10.9-9.1L582,58.3z"/>
		<path class="st0" d="M664.6,13.4l-13.3,4.8l8.2,22.5c4.4-1.7,8.8-3.3,13.3-4.8L664.6,13.4z"/>
		<path class="st0" d="M710.4,2.5l-14,2.4l4.2,23.6c4.6-0.9,9.3-1.7,14-2.4L710.4,2.5z"/>
		<path class="st0" d="M498.8,170.8l-4.8,13.3l22.3,8.1c1.5-4.5,3.1-8.9,4.9-13.3L498.8,170.8z"/>
		<path class="st0" d="M547.9,90.7l-9.1,10.9l18.3,15.3c2.9-3.7,6-7.3,9.1-10.9L547.9,90.7z"/>
		<path class="st0" d="M503.9,263h-23.1v14l23.4,0c-0.1-2.4-0.2-4.8-0.2-7.2C503.9,267.6,503.8,265,503.9,263z"/>
		<path class="st0" d="M962.1,101.5L953,90.7l-18.7,15.7c3.1,3.5,6.2,7.1,9.1,10.8L962.1,101.5z"/>
		<path class="st0" d="M988.1,140.9l-7-12.2L960,140.8c2.5,4,4.8,8.1,7.1,12.2L988.1,140.9z"/>
		<path class="st0" d="M1006.9,184.1l-4.8-13.3l-22.9,8.3c1.7,4.4,3.3,8.8,4.8,13.3L1006.9,184.1z"/>
		<path class="st0" d="M1017.9,230l-2.4-14l-24,4.2c0.9,4.6,1.8,9.3,2.4,14L1017.9,230z"/>
		<path class="st0" d="M757.7,23.7V0h-15v23.6c3-0.1,5.1-0.1,7.4-0.1C752.6,23.5,754.7,23.6,757.7,23.7z"/>
		<path class="st0" d="M849.5,18.3l-13.3-4.8L828,36.1c4.5,1.5,8.9,3.1,13.3,4.9L849.5,18.3z"/>
		<path class="st0" d="M929.7,67.4l-10.9-9.1l-15.6,18.6c3.7,2.9,7.3,6,10.8,9.1L929.7,67.4z"/>
		<path class="st0" d="M804.4,4.9l-13.9-2.5l-4.2,23.8c4.7,0.7,9.3,1.5,13.9,2.5L804.4,4.9z"/>
		<path class="st0" d="M891.7,39.3l-12.3-7.1l-12.1,21c4.2,2.3,8.2,4.6,12.2,7.1L891.7,39.3z"/>
		<path class="st0" d="M609.2,500.5l12.3,7.1l12-20.7c-4.2-2.2-8.3-4.6-12.3-7.1L609.2,500.5z"/>
		<path class="st0" d="M621.4,32.3l-12.3,7.1L621,60c4-2.5,8.1-4.8,12.3-7.1L621.4,32.3z"/>
		<path class="st0" d="M918.8,481.6l10.8-9.1L914,453.8c-3.5,3.1-7.1,6.2-10.8,9.1L918.8,481.6z"/>
		<path class="st0" d="M953,449.1l9.1-10.8l-18.7-15.7c-2.9,3.7-6,7.3-9.1,10.8L953,449.1z"/>
		<path class="st0" d="M879.5,507.6l12.2-7.1l-12.1-21c-4,2.5-8.1,4.9-12.2,7.1L879.5,507.6z"/>
		<path class="st0" d="M981,411.2l7.1-12.2L967,386.8c-2.2,4.2-4.6,8.2-7.1,12.2L981,411.2z"/>
		<path class="st0" d="M996.3,277h145.4l0-14H996.4c0.1,2,0.1,4.5,0.1,6.8C996.5,272.2,996.4,275,996.3,277z"/>
		<path class="st0" d="M836.2,526.4l13.3-4.9l-8.3-22.7c-4.4,1.7-8.8,3.4-13.3,4.9L836.2,526.4z"/>
		<path class="st0" d="M1015.5,323.8l2.5-13.9l-24-4.2c-0.7,4.7-1.5,9.3-2.4,13.9L1015.5,323.8z"/>
		<path class="st0" d="M1002.1,369.1l4.9-13.3l-22.9-8.3c-1.5,4.5-3.1,8.9-4.8,13.3L1002.1,369.1z"/>
		<path class="st0" d="M790.4,537.4l13.9-2.5l-4.2-23.8c-4.6,0.9-9.3,1.8-13.9,2.5L790.4,537.4z"/>
		<path class="st0" d="M571.3,472.5l10.8,9.1l15.4-18.3c-3.7-2.9-7.3-6-10.9-9.1L571.3,472.5z"/>
		<path class="st0" d="M538.8,438.3l9.1,10.9l18.3-15.4c-3.1-3.5-6.2-7.1-9.1-10.8L538.8,438.3z"/>
		<path class="st0" d="M494,355.7l4.8,13.3l22.3-8.1c-1.7-4.4-3.4-8.8-4.9-13.3L494,355.7z"/>
		<path class="st0" d="M742.7,516.1V540h15v-23.9c-3,0.1-5.2,0.1-7.6,0.1C747.8,516.2,745.7,516.2,742.7,516.1z"/>
		<path class="st0" d="M696.6,534.9l13.9,2.5l4.2-23.7c-4.7-0.7-9.3-1.5-13.9-2.4L696.6,534.9z"/>
		<path class="st0" d="M651.3,521.5l13.3,4.8l8.2-22.5c-4.5-1.5-8.9-3.1-13.3-4.8L651.3,521.5z"/>
		<path class="st0" d="M672.8,35.9c-4.5,1.5-8.9,3.1-13.3,4.8"/>
		<path class="st0" d="M714.6,26.1c-4.7,0.7-9.4,1.5-14,2.4"/>
	</g>
</g>
</svg>
