<?xml version="1.0" encoding="utf-8"?>
<!-- Generator: Adobe Illustrator 22.1.0, SVG Export Plug-In . SVG Version: 6.00 Build 0)  -->
<svg version="1.1" id="Calque_1" xmlns="http://www.w3.org/2000/svg" xmlns:xlink="http://www.w3.org/1999/xlink" x="0px" y="0px"
	 viewBox="0 0 235.2 234.9" style="enable-background:new 0 0 235.2 234.9;" xml:space="preserve">
<style type="text/css">
	.st0{fill:#F06923;}
</style>
<path class="st0" d="M164.9,70.5l-9.7-36L189,0.7c-16.5-2.6-33.8,2.4-46.4,15c-15,15-19.3,36.5-13.1,55.3
	c1.1,16.2-6.8,21.5-6.8,21.5L3.7,211.5c0,0-8.8,9.3,0.8,18.9c9.6,9.6,18.9,0.8,18.9,0.8l119.1-119.1c0,0,5.1-8.1,21.3-7
	c18.8,6.2,40.6,2.1,55.5-12.9c12.6-12.6,17.5-29.9,15.5-45.9L201,80.2L164.9,70.5z"/>
</svg>
