<?xml version="1.0" encoding="utf-8"?>
<!-- Generator: Adobe Illustrator 22.1.0, SVG Export Plug-In . SVG Version: 6.00 Build 0)  -->
<svg version="1.1" id="Calque_1" xmlns="http://www.w3.org/2000/svg" xmlns:xlink="http://www.w3.org/1999/xlink" x="0px" y="0px"
	 viewBox="0 0 234.8 235.3" style="enable-background:new 0 0 234.8 235.3;" xml:space="preserve">
<style type="text/css">
	.st0{fill:#F06923;}
</style>
<g>
	<path class="st0" d="M142.4,15.8c-15,15-19.2,36.7-13,55.5c1.1,16.2-6.7,21.6-6.7,21.6L3.7,212c0,0-8.8,9.3,0.8,18.9
		c9.6,9.6,18.9,0.8,18.9,0.8l119.1-119.1c0,0,5.1-8.1,21.3-7c18.8,6.2,40.3,1.8,55.3-13.2c21.1-21.1,21.1-55.4,0-76.6
		C197.8-5.3,163.5-5.3,142.4,15.8z M215.1,88.5c-19,19-49.9,19-68.9,0c-19-19-19-49.9,0-68.9c19-19,49.9-19,68.9,0
		C234.1,38.7,234.1,69.5,215.1,88.5z"/>
	<path class="st0" d="M152,25.4l4.8,4.8c12.7-12.7,32.9-13.2,46.2-1.5l4.8-4.8C191.8,9.6,167.3,10.1,152,25.4z"/>
</g>
</svg>
