<?xml version="1.0" encoding="utf-8"?>
<!-- Generator: Adobe Illustrator 22.1.0, SVG Export Plug-In . SVG Version: 6.00 Build 0)  -->
<svg version="1.1" id="Calque_1" xmlns="http://www.w3.org/2000/svg" xmlns:xlink="http://www.w3.org/1999/xlink" x="0px" y="0px"
	 viewBox="0 0 687.1 193.1" style="enable-background:new 0 0 687.1 193.1;" xml:space="preserve">
<style type="text/css">
	.st0{fill:#231F20;}
	.st1{fill:#F06923;}
</style>
<g>
	<path class="st0" d="M0,41.8h34.4c14,0,24.4,1.9,31.3,5.8s13,10,18.4,18.4s8.2,19,8.2,31.8c0,16.1-4.8,29.6-14.3,40.4
		c-9.5,10.8-22.6,16.2-39.3,16.2H0V41.8 M25.9,62.5v70.7h10.9c9.6,0,16.7-3.6,21.4-10.8c4.7-7.2,7-15.6,7-25.3
		c0-6.8-1.3-13.1-4-18.9s-6-9.9-9.9-12.2c-4-2.3-8.7-3.5-14.2-3.5L25.9,62.5L25.9,62.5z"/>
	<path class="st0" d="M185,109.7v44.6h-26.6V41.8h49.5c9.1,0,16.5,1.1,22,3.2s10.1,6,13.7,11.7s5.4,11.9,5.4,18.9
		c0,13.5-6.5,23.2-19.5,29.1l20.8,49.8h-29.1l-17.3-44.6H185 M185,61.8v28.7h16.2c5.3,0,9.1-0.4,11.5-1.1s4.5-2.4,6.4-4.9
		c1.9-2.6,2.8-5.5,2.8-8.8c0-3.1-0.9-5.9-2.8-8.4s-3.9-4-6.1-4.6s-6.3-0.9-12.4-0.9H185z"/>
	<path class="st0" d="M318.3,41.8h52.4c9.4,0,16.5,1.1,21.2,3.5c4.7,2.3,8.6,5.6,11.7,9.9s4.6,9.5,4.6,15.7c0,12.5-6.8,20.8-20.3,25
		c7.8,1.8,13.6,5.3,17.6,10.5c3.9,5.2,5.9,10.9,5.9,17.1c0,8.4-3.2,15.7-9.6,21.8s-16.7,9.2-31.1,9.2h-52.4L318.3,41.8 M344.7,61.6
		v24.7h20c7.3,0,11.9-1.4,13.8-4.3s2.8-5.6,2.8-8.3c0-2.9-0.8-5.3-2.3-7.4c-1.6-2.1-3.3-3.4-5.2-3.9c-1.9-0.5-5.6-0.8-11.1-0.8
		L344.7,61.6L344.7,61.6z M344.7,106.3v27.1h20.2c6.9,0,11.8-1.2,14.7-3.6c2.9-2.4,4.3-5.8,4.3-10.1c0-3.6-1.4-6.8-4.1-9.4
		c-2.7-2.6-7.3-4-13.7-4H344.7z"/>
	<polyline class="st0" points="509.1,63.2 455.5,63.2 455.5,86.3 497.6,86.3 497.6,107.5 455.5,107.5 455.5,132.1 509.1,132.1 
		509.1,154.3 428.7,154.3 428.7,41.8 509.1,41.8 509.1,63.2 	"/>
	<polyline class="st1" points="490,0 496.2,13.8 459.9,29.2 455.8,20 490,0 	"/>
	<rect x="109.1" y="41.8" class="st0" width="4.2" height="112.6"/>
	<rect x="123.9" y="41.8" class="st0" width="4.2" height="112.6"/>
	<rect x="131.2" y="41.8" class="st0" width="4.2" height="112.6"/>
	<rect x="269.4" y="44" class="st0" width="26.3" height="4.1"/>
	<rect x="269.4" y="61.1" class="st0" width="26.3" height="4.1"/>
	<rect x="269.4" y="69.6" class="st0" width="26.3" height="4.1"/>
	<rect x="269.4" y="78.2" class="st0" width="26.3" height="4.1"/>
	<rect x="269.4" y="86.7" class="st0" width="26.3" height="4.1"/>
	<rect x="269.4" y="95.2" class="st0" width="26.3" height="4.1"/>
	<rect x="269.4" y="103.7" class="st0" width="26.3" height="4.1"/>
	<rect x="269.4" y="112.3" class="st0" width="26.3" height="4.1"/>
	<rect x="269.4" y="120.8" class="st0" width="26.3" height="4.1"/>
	<rect x="269.4" y="129.3" class="st0" width="26.3" height="4.1"/>
	<rect x="269.4" y="137.8" class="st0" width="26.3" height="4.1"/>
	<rect x="269.4" y="146.4" class="st0" width="26.3" height="4.1"/>
	<rect x="269.4" y="163.4" class="st0" width="26.3" height="4.1"/>
	<rect x="269.4" y="172" class="st0" width="26.3" height="4.1"/>
	<rect x="269.4" y="180.5" class="st0" width="26.3" height="4.1"/>
	<rect x="269.4" y="189" class="st0" width="26.3" height="4.1"/>
	<path class="st0" d="M573,57.9l-24.6-29.3l-3.4,2.9l24.6,29.3C570.7,59.7,571.8,58.8,573,57.9"/>
	<path class="st0" d="M587.6,50.3l-13-35.8l-4.2,1.5l13,35.9C584.7,51.2,586.1,50.7,587.6,50.3"/>
	<path class="st0" d="M595.7,48.6L589,11l-4.4,0.8l6.6,37.6C592.7,49,594.2,48.8,595.7,48.6"/>
	<path class="st0" d="M558,77.2l-35.8-13l-1.5,4.2l35.8,13C556.9,80,557.4,78.6,558,77.2"/>
	<path class="st0" d="M555.5,85.1l-37.6-6.6l-0.8,4.4l37.6,6.6C554.9,88,555.2,86.6,555.5,85.1"/>
	<path class="st0" d="M566.9,63.4l-29.3-24.6l-2.9,3.4L564,66.8C564.9,65.7,565.9,64.5,566.9,63.4"/>
	<path class="st0" d="M561.8,69.9l-33.1-19.1l-2.2,3.9l33.1,19.1C560.3,72.5,561,71.2,561.8,69.9"/>
	<path class="st0" d="M554.3,95.5c0-0.8,0.1-1.5,0.1-2.2h-38.2v4.5h38.2C554.4,97,554.3,96.3,554.3,95.5"/>
	<path class="st0" d="M639.3,66.8l29.3-24.6l-2.9-3.4l-29.3,24.6C637.5,64.5,638.4,65.7,639.3,66.8"/>
	<path class="st0" d="M643.8,73.8l33.1-19.1l-2.2-3.9l-33.1,19.1C642.3,71.2,643.1,72.5,643.8,73.8"/>
	<path class="st0" d="M646.9,81.4l35.8-13l-1.5-4.2l-35.9,13.1C646,78.6,646.5,80,646.9,81.4"/>
	<path class="st0" d="M648.6,89.5l37.6-6.6l-0.8-4.4l-37.6,6.6C648.2,86.6,648.5,88,648.6,89.5"/>
	<path class="st0" d="M601.7,48.1c0.8,0,1.5,0.1,2.2,0.1V10h-4.5v38.2C600.2,48.2,600.9,48.1,601.7,48.1"/>
	<path class="st0" d="M620,51.8l13-35.9l-4.2-1.5l-13,35.8C617.2,50.7,618.6,51.2,620,51.8"/>
	<path class="st0" d="M633.8,60.7l24.6-29.3l-3.4-2.9l-24.6,29.3C631.5,58.8,632.7,59.7,633.8,60.7"/>
	<path class="st0" d="M612.1,49.3l6.6-37.6l-4.4-0.8l-6.6,37.6C609.2,48.8,610.6,49,612.1,49.3"/>
	<path class="st0" d="M627.3,55.7l19.1-33.1l-3.9-2.2l-19.1,33C624.7,54.1,626,54.9,627.3,55.7"/>
	<path class="st0" d="M576.1,135.4l-19.1,33l3.9,2.2l19.1-33.1C578.6,136.9,577.3,136.2,576.1,135.4"/>
	<rect x="116.5" y="41.8" class="st0" width="4.2" height="112.6"/>
	<rect x="269.4" y="52.6" class="st0" width="26.3" height="4.1"/>
	<rect x="269.4" y="154.9" class="st0" width="26.3" height="4.1"/>
	<path class="st0" d="M580,53.4l-19.1-33l-3.9,2.2l19.1,33.1C577.3,54.9,578.6,54.1,580,53.4"/>
	<path class="st0" d="M630.3,133.2l24.6,29.3l3.4-2.9l-24.6-29.3C632.7,131.3,631.5,132.3,630.3,133.2"/>
	<path class="st0" d="M636.5,127.6l29.3,24.6l2.9-3.4l-29.3-24.6C638.4,125.4,637.5,126.5,636.5,127.6"/>
	<path class="st0" d="M623.4,137.6l19.1,33.1l3.9-2.2l-19.1-33.1C626,136.2,624.7,136.9,623.4,137.6"/>
	<path class="st0" d="M641.5,121.1l33.1,19.1l2.2-3.9l-33.1-19.1C643.1,118.6,642.3,119.9,641.5,121.1"/>
	<path class="st0" d="M648.9,93.3c0,0.7,0.1,1.5,0.1,2.2c0,0.8-0.1,1.5-0.1,2.2h38.2v-4.5h-38.2"/>
	<path class="st0" d="M615.8,140.8l13.1,35.8l4.2-1.5l-13-35.8C618.6,139.8,617.2,140.3,615.8,140.8"/>
	<path class="st0" d="M647.9,105.9l37.6,6.6l0.8-4.4l-37.6-6.6C648.5,103,648.2,104.5,647.9,105.9"/>
	<path class="st0" d="M645.4,113.8l35.8,13l1.5-4.2l-35.8-13.1C646.5,111.1,646,112.5,645.4,113.8"/>
	<path class="st0" d="M607.7,142.5l6.6,37.6l4.4-0.8l-6.6-37.6C610.6,142.1,609.2,142.3,607.7,142.5"/>
	<path class="st0" d="M569.6,130.3L545,159.6l3.4,2.9l24.6-29.3C571.8,132.3,570.7,131.3,569.6,130.3"/>
	<path class="st0" d="M564,124.2l-29.3,24.5l2.9,3.4l29.3-24.6C565.9,126.5,564.9,125.4,564,124.2"/>
	<path class="st0" d="M554.7,101.5l-37.6,6.6l0.8,4.4l37.6-6.6C555.2,104.5,554.9,103,554.7,101.5"/>
	<path class="st0" d="M556.4,109.6l-35.8,13l1.5,4.2l35.9-13C557.4,112.5,556.9,111.1,556.4,109.6"/>
	<path class="st0" d="M559.6,117.2l-33.1,19.1l2.2,3.9l33.1-19.1C561,119.9,560.3,118.6,559.6,117.2"/>
	<path class="st0" d="M601.7,142.9c-0.8,0-1.5-0.1-2.3-0.1V181h4.5v-38.2C603.2,142.8,602.4,142.9,601.7,142.9"/>
	<path class="st0" d="M591.3,141.7l-6.6,37.6l4.4,0.8l6.6-37.6C594.2,142.3,592.7,142,591.3,141.7"/>
	<path class="st0" d="M583.4,139.2l-13,35.8l4.2,1.5l13-35.8C586.2,140.3,584.8,139.8,583.4,139.2"/>
	<path class="st0" d="M135.4,16.1c0-7.3-5.9-13.2-13.2-13.2S109,8.8,109,16.1s5.9,13.2,13.2,13.2C129.5,29.2,135.4,23.4,135.4,16.1"
		/>
	<path class="st0" d="M295.8,16.1c0-7.3-5.9-13.2-13.2-13.2c-7.3,0-13.2,5.9-13.2,13.2s5.9,13.2,13.2,13.2
		C289.9,29.2,295.8,23.4,295.8,16.1"/>
</g>
</svg>
