<?xml version="1.0" encoding="utf-8"?>
<!-- Generator: Adobe Illustrator 22.1.0, SVG Export Plug-In . SVG Version: 6.00 Build 0)  -->
<svg version="1.1" id="Calque_1" xmlns="http://www.w3.org/2000/svg" xmlns:xlink="http://www.w3.org/1999/xlink" x="0px" y="0px"
	 viewBox="0 0 462.7 463" style="enable-background:new 0 0 462.7 463;" xml:space="preserve">
<style type="text/css">
	.st0{fill:#E6E6E6;}
	.st1{fill:#231F20;}
</style>
<g>
	<path class="st0" d="M99.6,65.5L86.4,49.8l-9.3,7.8l13.1,15.7C93.3,70.6,96.4,68,99.6,65.5z"/>
	<path class="st0" d="M34.3,153.3l-19.1-7l-4.1,11.4l19.1,7C31.4,160.9,32.8,157.1,34.3,153.3z"/>
	<path class="st0" d="M72.8,90.8L57.2,77.7L49.4,87L65,100.1C67.5,96.9,70.1,93.8,72.8,90.8z"/>
	<path class="st0" d="M19.6,231.1c0-2-0.1-5.1,0-6.1H0v12.4l19.9-0.1C19.8,235.3,19.6,233.1,19.6,231.1z"/>
	<path class="st1" d="M411.6,86.9l-7.8-9.3l-16,13.4c2.7,3,5.3,6.1,7.8,9.3L411.6,86.9z"/>
	<path class="st1" d="M415.8,131.1l18-10.4l-6-10.5l-18.1,10.4C411.9,124,413.9,127.5,415.8,131.1z"/>
	<path class="st1" d="M430.4,164.9l19.6-7.1l-4.1-11.4l-19.6,7.2C427.7,157.2,429.1,161,430.4,164.9z"/>
	<path class="st1" d="M438.8,200.7l20.6-3.6l-2.1-12l-20.6,3.6C437.5,192.7,438.2,196.7,438.8,200.7z"/>
	<path class="st1" d="M225,20.1c2-0.1,3.9-0.1,6-0.1c2,0,4,0,6,0.1V0h-12V20.1z"/>
	<path class="st1" d="M296.9,30.8c3.8,1.3,7.6,2.7,11.4,4.2l7.1-19.5l-11.4-4.1L296.9,30.8z"/>
	<path class="st1" d="M361.2,65.8c3.2,2.5,6.3,5.1,9.3,7.8l13.4-16l-9.3-7.8L361.2,65.8z"/>
	<path class="st1" d="M261.1,22.3c4,0.6,8,1.3,11.9,2.1L276.7,4l-11.9-2.1L261.1,22.3z"/>
	<path class="st1" d="M330.6,45.5c3.6,1.9,7,4,10.5,6.1l10.4-18l-10.5-6.1L330.6,45.5z"/>
	<path class="st0" d="M109.6,429l10.5,6.1l10.2-17.8c-3.6-1.9-7.1-3.9-10.5-6.1L109.6,429z"/>
	<path class="st0" d="M130.3,45.3l-10.2-17.7l-10.5,6.1l10.2,17.7C123.2,49.2,126.7,47.2,130.3,45.3z"/>
	<path class="st0" d="M361.2,396.8l13.4,16l9.3-7.8l-13.4-16C367.4,391.7,364.3,394.3,361.2,396.8z"/>
	<path class="st0" d="M387.8,371.5l16,13.4l7.8-9.3l-16-13.4C393.1,365.4,390.5,368.5,387.8,371.5z"/>
	<path class="st0" d="M330.5,417.1l10.4,18l10.5-6.1L341,411C337.6,413.1,334.1,415.2,330.5,417.1z"/>
	<path class="st0" d="M409.8,342l18.1,10.5l6.1-10.5l-18.1-10.5C413.9,335.1,411.9,338.6,409.8,342z"/>
	<path class="st1" d="M440.9,225c0.1,1,0.1,3.8,0.1,5.8c0,2.1,0,5.2-0.1,6.2h21.8l0-12H440.9z"/>
	<path class="st0" d="M296.8,431.7l7.1,19.5l11.4-4.2l-7.1-19.5C304.5,429.1,300.7,430.5,296.8,431.7z"/>
	<path class="st0" d="M436.7,273.9l20.6,3.6l2.1-11.9l-20.6-3.6C438.2,266,437.5,270,436.7,273.9z"/>
	<path class="st0" d="M426.2,309.2l19.6,7.1l4.2-11.4l-19.6-7.2C429.1,301.6,427.7,305.4,426.2,309.2z"/>
	<path class="st0" d="M261.1,440.3l3.6,20.4l11.9-2.1l-3.6-20.4C269.1,439,265.1,439.7,261.1,440.3z"/>
	<path class="st0" d="M77.2,405l9.3,7.8l13.2-15.7c-3.2-2.5-6.3-5.1-9.3-7.8L77.2,405z"/>
	<path class="st0" d="M49.4,375.7l7.8,9.3l15.7-13.2c-2.7-3-5.3-6.1-7.8-9.3L49.4,375.7z"/>
	<path class="st0" d="M30.2,297.9l-19.1,7l4.1,11.4l19.1-7C32.8,305.6,31.4,301.8,30.2,297.9z"/>
	<path class="st0" d="M225,442.4V463h12v-20.6c-2,0.1-4,0.1-6,0.1C228.9,442.5,227,442.5,225,442.4z"/>
	<path class="st0" d="M184.4,458.5l11.9,2.1l3.6-20.3c-4-0.6-8-1.3-11.9-2.1L184.4,458.5z"/>
	<path class="st0" d="M145.7,447.1l11.4,4.2l7-19.3c-3.9-1.3-7.7-2.7-11.4-4.1L145.7,447.1z"/>
	<polygon class="st0" points="164.1,30.7 157.1,11.4 145.7,15.5 152.7,34.8 	"/>
	<polygon class="st0" points="199.9,22.2 196.3,2 184.3,4.1 187.9,24.3 	"/>
	<path class="st0" d="M45,331.7l-18,10.4l6,10.5l18.1-10.4C49,338.7,46.9,335.2,45,331.7z"/>
	<path class="st0" d="M22,262.1l-20.6,3.6l2.1,12l20.6-3.6C23.3,270.1,22.6,266.1,22,262.1z"/>
	<path class="st0" d="M51.1,120.7L33,110.3L27,120.8l18.1,10.5C47,127.7,49,124.2,51.1,120.7z"/>
	<path class="st0" d="M24.1,188.8l-20.6-3.6l-2.1,11.9l20.6,3.6C22.6,196.8,23.3,192.8,24.1,188.8z"/>
</g>
</svg>
