<?xml version="1.0" encoding="utf-8"?>
<!-- Generator: Adobe Illustrator 22.1.0, SVG Export Plug-In . SVG Version: 6.00 Build 0)  -->
<svg version="1.1" id="Calque_1" xmlns="http://www.w3.org/2000/svg" xmlns:xlink="http://www.w3.org/1999/xlink" x="0px" y="0px"
	 viewBox="0 0 463.4 463" style="enable-background:new 0 0 463.4 463;" xml:space="preserve">
<style type="text/css">
	.st0{fill:#E6E6E6;}
	.st1{fill:#231F20;}
</style>
<g>
	<path class="st0" d="M100.2,65.5L87.1,49.8l-9.3,7.8L91,73.3C94,70.6,97.1,68,100.2,65.5z"/>
	<path class="st0" d="M35,153.3l-19.1-7l-4.1,11.4l19.1,7C32.1,160.9,33.5,157.1,35,153.3z"/>
	<path class="st0" d="M73.5,90.8L57.9,77.7L50.1,87l15.6,13.1C68.2,96.9,70.8,93.8,73.5,90.8z"/>
	<path class="st0" d="M20.3,231.6c0-2-0.1-4.6,0-5.6H0v11.4l20.2,0.2C20.1,235.5,20.3,233.6,20.3,231.6z"/>
	<path class="st1" d="M412.3,86.9l-7.8-9.3l-16,13.4c2.7,3,5.3,6.1,7.8,9.3L412.3,86.9z"/>
	<path class="st1" d="M416.5,131.1l18-10.4l-6-10.5l-18.1,10.4C412.6,124,414.6,127.5,416.5,131.1z"/>
	<path class="st1" d="M431.1,164.9l19.6-7.1l-4.1-11.4l-19.6,7.2C428.4,157.2,429.8,161,431.1,164.9z"/>
	<path class="st1" d="M439.5,200.7L460,197l-2.1-12l-20.6,3.6C438.2,192.7,438.9,196.7,439.5,200.7z"/>
	<path class="st1" d="M225,20.1c1-0.1,3.9-0.1,5.9-0.1c2,0,4.1,0,6.1,0.1V0h-12V20.1z"/>
	<path class="st1" d="M297.5,30.8c3.8,1.3,7.6,2.7,11.4,4.2l7.1-19.5l-11.4-4.1L297.5,30.8z"/>
	<path class="st1" d="M361.9,65.8c3.2,2.5,6.3,5.1,9.3,7.8l13.4-16l-9.3-7.8L361.9,65.8z"/>
	<path class="st1" d="M261.8,22.3c4,0.6,8,1.3,11.9,2.1L277.3,4l-11.9-2.1L261.8,22.3z"/>
	<path class="st1" d="M331.3,45.5c3.6,1.9,7,4,10.5,6.1l10.4-18l-10.5-6.1L331.3,45.5z"/>
	<path class="st0" d="M110.3,429l10.5,6.1l10.2-17.8c-3.6-1.9-7.1-3.9-10.5-6.1L110.3,429z"/>
	<path class="st0" d="M131,45.3l-10.2-17.7l-10.5,6.1l10.2,17.7C123.9,49.2,127.4,47.2,131,45.3z"/>
	<path class="st1" d="M361.8,396.8l13.4,16l9.3-7.8l-13.4-16C368.1,391.7,365,394.3,361.8,396.8z"/>
	<path class="st1" d="M388.5,371.5l16,13.4l7.8-9.3l-16-13.4C393.8,365.4,391.2,368.5,388.5,371.5z"/>
	<path class="st1" d="M331.2,417.1l10.4,18l10.5-6.1l-10.4-18C338.3,413.1,334.8,415.2,331.2,417.1z"/>
	<path class="st1" d="M410.4,342l18.1,10.5l6.1-10.5l-18.1-10.5C414.6,335.1,412.5,338.6,410.4,342z"/>
	<path class="st1" d="M441.6,226c0.1,1,0.1,3.8,0.1,5.8c0,2.1,0,5.2-0.1,6.2h21.8l0-12H441.6z"/>
	<path class="st1" d="M297.5,431.7l7.1,19.5l11.4-4.2l-7.1-19.5C305.2,429.1,301.4,430.5,297.5,431.7z"/>
	<path class="st1" d="M437.4,273.9l20.6,3.6l2.1-11.9l-20.6-3.6C438.9,266,438.2,270,437.4,273.9z"/>
	<path class="st1" d="M426.9,309.2l19.6,7.1l4.2-11.4l-19.6-7.2C429.8,301.6,428.4,305.4,426.9,309.2z"/>
	<path class="st1" d="M261.8,440.3l3.6,20.4l11.9-2.1l-3.6-20.4C269.8,439,265.8,439.7,261.8,440.3z"/>
	<path class="st0" d="M77.9,405l9.3,7.8l13.2-15.7c-3.2-2.5-6.3-5.1-9.3-7.8L77.9,405z"/>
	<path class="st0" d="M50.1,375.7l7.8,9.3l15.7-13.2c-2.7-3-5.3-6.1-7.8-9.3L50.1,375.7z"/>
	<path class="st0" d="M30.8,297.9l-19.1,7l4.1,11.4l19.1-7C33.5,305.6,32.1,301.8,30.8,297.9z"/>
	<path class="st1" d="M225,442.4V463h12v-20.6c-2,0.1-4,0.1-6.1,0.1C228.9,442.5,226,442.5,225,442.4z"/>
	<path class="st0" d="M185.1,458.5l11.9,2.1l3.6-20.3c-4-0.6-8-1.3-11.9-2.1L185.1,458.5z"/>
	<path class="st0" d="M146.4,447.1l11.4,4.2l7-19.3c-3.9-1.3-7.7-2.7-11.4-4.1L146.4,447.1z"/>
	<polygon class="st0" points="164.7,30.7 157.7,11.4 146.3,15.5 153.3,34.8 	"/>
	<polygon class="st0" points="200.5,22.2 197,2 185,4.1 188.6,24.3 	"/>
	<path class="st0" d="M45.7,331.7l-18,10.4l6,10.5l18.1-10.4C49.6,338.7,47.6,335.2,45.7,331.7z"/>
	<path class="st0" d="M22.7,262.1l-20.6,3.6l2.1,12l20.6-3.6C24,270.1,23.3,266.1,22.7,262.1z"/>
	<path class="st0" d="M51.8,120.7l-18.1-10.5l-6.1,10.5l18.1,10.5C47.6,127.7,49.7,124.2,51.8,120.7z"/>
	<path class="st0" d="M24.8,188.8l-20.6-3.6l-2.1,11.9l20.6,3.6C23.3,196.8,24,192.8,24.8,188.8z"/>
</g>
</svg>
