<?xml version="1.0" encoding="utf-8"?>
<!-- Generator: Adobe Illustrator 22.1.0, SVG Export Plug-In . SVG Version: 6.00 Build 0)  -->
<svg version="1.1" id="Calque_1" xmlns="http://www.w3.org/2000/svg" xmlns:xlink="http://www.w3.org/1999/xlink" x="0px" y="0px"
	 viewBox="0 0 463 463" style="enable-background:new 0 0 463 463;" xml:space="preserve">
<style type="text/css">
	.st0{fill:#E6E6E6;}
	.st1{fill:#231F20;}
</style>
<g>
	<path class="st0" d="M99.8,65.5L86.7,49.8l-9.3,7.8l13.1,15.7C93.6,70.6,96.7,68,99.8,65.5z"/>
	<path class="st0" d="M34.6,153.3l-19.1-7l-4.1,11.4l19.1,7C31.7,160.9,33.1,157.1,34.6,153.3z"/>
	<path class="st0" d="M73.1,90.8L57.5,77.7L49.7,87l15.6,13.1C67.8,96.9,70.4,93.8,73.1,90.8z"/>
	<path class="st1" d="M19.9,231.1c0-2-0.1-5.1,0-6.1H0v12.4l20-0.1C19.9,235.3,19.9,233.1,19.9,231.1z"/>
	<path class="st1" d="M411.9,86.9l-7.8-9.3l-16,13.4c2.7,3,5.3,6.1,7.8,9.3L411.9,86.9z"/>
	<path class="st1" d="M416.1,131.1l18-10.4l-6-10.5l-18.1,10.4C412.2,124,414.2,127.5,416.1,131.1z"/>
	<path class="st1" d="M430.7,164.9l19.6-7.1l-4.1-11.4l-19.6,7.2C428,157.2,429.4,161,430.7,164.9z"/>
	<path class="st1" d="M439.1,200.7l20.6-3.6l-2.1-12l-20.6,3.6C437.8,192.7,438.5,196.7,439.1,200.7z"/>
	<path class="st1" d="M225,20.1c2-0.1,3.9-0.1,5.9-0.1c2,0,4.1,0,6.1,0.1V0h-12V20.1z"/>
	<path class="st1" d="M297.1,30.8c3.8,1.3,7.6,2.7,11.4,4.2l7.1-19.5l-11.4-4.1L297.1,30.8z"/>
	<path class="st1" d="M361.5,65.8c3.2,2.5,6.3,5.1,9.3,7.8l13.4-16l-9.3-7.8L361.5,65.8z"/>
	<path class="st1" d="M261.4,22.3c4,0.6,8,1.3,11.9,2.1L276.9,4L265,1.9L261.4,22.3z"/>
	<path class="st1" d="M330.9,45.5c3.6,1.9,7,4,10.5,6.1l10.4-18l-10.5-6.1L330.9,45.5z"/>
	<path class="st1" d="M109.9,429l10.5,6.1l10.2-17.8c-3.6-1.9-7.1-3.9-10.5-6.1L109.9,429z"/>
	<path class="st0" d="M130.6,45.3l-10.2-17.7l-10.5,6.1l10.2,17.7C123.5,49.2,127,47.2,130.6,45.3z"/>
	<path class="st1" d="M361.4,396.8l13.4,16l9.3-7.8l-13.4-16C367.7,391.7,364.6,394.3,361.4,396.8z"/>
	<path class="st1" d="M388.1,371.5l16,13.4l7.8-9.3l-16-13.4C393.4,365.4,390.8,368.5,388.1,371.5z"/>
	<path class="st1" d="M330.8,417.1l10.4,18l10.5-6.1l-10.4-18C337.9,413.1,334.4,415.2,330.8,417.1z"/>
	<path class="st1" d="M410,342l18.1,10.5l6.1-10.5l-18.1-10.5C414.2,335.1,412.1,338.6,410,342z"/>
	<path class="st1" d="M441.2,225c0.1,1,0.1,3.8,0.1,5.8c0,2.1,0,5.2-0.1,6.2H463l0-12H441.2z"/>
	<path class="st1" d="M297.1,431.7l7.1,19.5l11.4-4.2l-7.1-19.5C304.8,429.1,301,430.5,297.1,431.7z"/>
	<path class="st1" d="M437,273.9l20.6,3.6l2.1-11.9l-20.6-3.6C438.5,266,437.8,270,437,273.9z"/>
	<path class="st1" d="M426.5,309.2l19.6,7.1l4.2-11.4l-19.6-7.2C429.4,301.6,428,305.4,426.5,309.2z"/>
	<path class="st1" d="M261.4,440.3l3.6,20.4l11.9-2.1l-3.6-20.4C269.4,439,265.4,439.7,261.4,440.3z"/>
	<path class="st1" d="M77.5,405l9.3,7.8l13.2-15.7c-3.2-2.5-6.3-5.1-9.3-7.8L77.5,405z"/>
	<path class="st1" d="M49.7,375.7l7.8,9.3l15.7-13.2c-2.7-3-5.3-6.1-7.8-9.3L49.7,375.7z"/>
	<path class="st1" d="M30.4,297.9l-19.1,7l4.1,11.4l19.1-7C33.1,305.6,31.7,301.8,30.4,297.9z"/>
	<path class="st1" d="M225,442.4V463h12v-20.6c-2,0.1-4,0.1-6.1,0.1C228.9,442.5,227,442.5,225,442.4z"/>
	<path class="st1" d="M184.7,458.5l11.9,2.1l3.6-20.3c-4-0.6-8-1.3-11.9-2.1L184.7,458.5z"/>
	<path class="st1" d="M146,447.1l11.4,4.2l7-19.3c-3.9-1.3-7.7-2.7-11.4-4.1L146,447.1z"/>
	<polygon class="st0" points="164.3,30.7 157.3,11.4 145.9,15.5 152.9,34.8 	"/>
	<polygon class="st0" points="200.1,22.2 196.6,2 184.6,4.1 188.2,24.3 	"/>
	<path class="st1" d="M45.3,331.7l-18,10.4l6,10.5l18.1-10.4C49.2,338.7,47.2,335.2,45.3,331.7z"/>
	<path class="st1" d="M22.3,262.1l-20.6,3.6l2.1,12l20.6-3.6C23.6,270.1,22.9,266.1,22.3,262.1z"/>
	<path class="st0" d="M51.4,120.7l-18.1-10.5l-6.1,10.5l18.1,10.5C47.2,127.7,49.3,124.2,51.4,120.7z"/>
	<path class="st0" d="M24.4,188.8l-20.6-3.6l-2.1,11.9l20.6,3.6C22.9,196.8,23.6,192.8,24.4,188.8z"/>
</g>
</svg>
