<?xml version="1.0" encoding="utf-8"?>
<!-- Generator: Adobe Illustrator 22.1.0, SVG Export Plug-In . SVG Version: 6.00 Build 0)  -->
<svg version="1.1" id="Calque_1" xmlns="http://www.w3.org/2000/svg" xmlns:xlink="http://www.w3.org/1999/xlink" x="0px" y="0px"
	 viewBox="0 0 462.8 463" style="enable-background:new 0 0 462.8 463;" xml:space="preserve">
<style type="text/css">
	.st0{fill:#231F20;}
</style>
<g>
	<path class="st0" d="M99.7,65.5L86.5,49.8l-9.3,7.8l13.1,15.7C93.4,70.6,96.5,68,99.7,65.5z"/>
	<path class="st0" d="M34.4,153.3l-19.1-7l-4.1,11.4l19.1,7C31.5,160.9,32.9,157.1,34.4,153.3z"/>
	<path class="st0" d="M72.9,90.8L57.3,77.7L49.5,87l15.6,13.1C67.6,96.9,70.2,93.8,72.9,90.8z"/>
	<path class="st0" d="M19.7,231.1c0-2-0.1-5.1,0-6.1H0v12.4l19.9-0.1C19.9,235.3,19.7,233.1,19.7,231.1z"/>
	<path class="st0" d="M411.7,86.9l-7.8-9.3l-16,13.4c2.7,3,5.3,6.1,7.8,9.3L411.7,86.9z"/>
	<path class="st0" d="M415.9,131.1l18-10.4l-6-10.5l-18.1,10.4C412,124,414,127.5,415.9,131.1z"/>
	<path class="st0" d="M430.5,164.9l19.6-7.1l-4.1-11.4l-19.6,7.2C427.8,157.2,429.2,161,430.5,164.9z"/>
	<path class="st0" d="M438.9,200.7l20.6-3.6l-2.1-12l-20.6,3.6C437.6,192.7,438.3,196.7,438.9,200.7z"/>
	<path class="st0" d="M225,20.1c2-0.1,3.9-0.1,6-0.1c2,0,4,0,6,0.1V0h-12V20.1z"/>
	<path class="st0" d="M297,30.8c3.8,1.3,7.6,2.7,11.4,4.2l7.1-19.5L304,11.4L297,30.8z"/>
	<path class="st0" d="M361.3,65.8c3.2,2.5,6.3,5.1,9.3,7.8l13.4-16l-9.3-7.8L361.3,65.8z"/>
	<path class="st0" d="M261.3,22.3c4,0.6,8,1.3,11.9,2.1L276.8,4l-11.9-2.1L261.3,22.3z"/>
	<path class="st0" d="M330.7,45.5c3.6,1.9,7,4,10.5,6.1l10.4-18l-10.5-6.1L330.7,45.5z"/>
	<path class="st0" d="M109.7,429l10.5,6.1l10.2-17.8c-3.6-1.9-7.1-3.9-10.5-6.1L109.7,429z"/>
	<path class="st0" d="M130.4,45.3l-10.2-17.7l-10.5,6.1l10.2,17.7C123.3,49.2,126.8,47.2,130.4,45.3z"/>
	<path class="st0" d="M361.3,396.8l13.4,16l9.3-7.8l-13.4-16C367.5,391.7,364.4,394.3,361.3,396.8z"/>
	<path class="st0" d="M387.9,371.5l16,13.4l7.8-9.3l-16-13.4C393.2,365.4,390.6,368.5,387.9,371.5z"/>
	<path class="st0" d="M330.7,417.1l10.4,18l10.5-6.1l-10.4-18C337.7,413.1,334.2,415.2,330.7,417.1z"/>
	<path class="st0" d="M409.9,342l18.1,10.5L434,342l-18.1-10.5C414,335.1,412,338.6,409.9,342z"/>
	<path class="st0" d="M441,225c0.1,1,0.1,3.8,0.1,5.8c0,2.1,0,5.2-0.1,6.2h21.8l0-12H441z"/>
	<path class="st0" d="M297,431.7l7.1,19.5l11.4-4.2l-7.1-19.5C304.6,429.1,300.8,430.5,297,431.7z"/>
	<path class="st0" d="M436.8,273.9l20.6,3.6l2.1-11.9l-20.6-3.6C438.3,266,437.6,270,436.8,273.9z"/>
	<path class="st0" d="M426.3,309.2l19.6,7.1l4.2-11.4l-19.6-7.2C429.2,301.6,427.8,305.4,426.3,309.2z"/>
	<path class="st0" d="M261.2,440.3l3.6,20.4l11.9-2.1l-3.6-20.4C269.2,439,265.2,439.7,261.2,440.3z"/>
	<path class="st0" d="M77.3,405l9.3,7.8l13.2-15.7c-3.2-2.5-6.3-5.1-9.3-7.8L77.3,405z"/>
	<path class="st0" d="M49.5,375.7l7.8,9.3L73,371.8c-2.7-3-5.3-6.1-7.8-9.3L49.5,375.7z"/>
	<path class="st0" d="M30.3,297.9l-19.1,7l4.1,11.4l19.1-7C32.9,305.6,31.6,301.8,30.3,297.9z"/>
	<path class="st0" d="M225,442.4V463h12v-20.6c-2,0.1-4,0.1-6,0.1C228.9,442.5,227,442.5,225,442.4z"/>
	<path class="st0" d="M184.5,458.5l11.9,2.1l3.6-20.3c-4-0.6-8-1.3-11.9-2.1L184.5,458.5z"/>
	<path class="st0" d="M145.8,447.1l11.4,4.2l7-19.3c-3.9-1.3-7.7-2.7-11.4-4.1L145.8,447.1z"/>
	<polygon class="st0" points="164.2,30.7 157.2,11.4 145.8,15.5 152.8,34.8 	"/>
	<polygon class="st0" points="200,22.2 196.4,2 184.5,4.1 188,24.3 	"/>
	<path class="st0" d="M45.1,331.7l-18,10.4l6,10.5l18.1-10.4C49.1,338.7,47.1,335.2,45.1,331.7z"/>
	<path class="st0" d="M22.2,262.1l-20.6,3.6l2.1,12l20.6-3.6C23.4,270.1,22.7,266.1,22.2,262.1z"/>
	<path class="st0" d="M51.2,120.7l-18.1-10.5l-6.1,10.5l18.1,10.5C47.1,127.7,49.1,124.2,51.2,120.7z"/>
	<path class="st0" d="M24.3,188.8l-20.6-3.6l-2.1,11.9l20.6,3.6C22.8,196.8,23.4,192.8,24.3,188.8z"/>
</g>
</svg>
