<?xml version="1.0" encoding="utf-8"?>
<!-- Generator: Adobe Illustrator 22.1.0, SVG Export Plug-In . SVG Version: 6.00 Build 0)  -->
<svg version="1.1" id="Calque_1" xmlns="http://www.w3.org/2000/svg" xmlns:xlink="http://www.w3.org/1999/xlink" x="0px" y="0px"
	 viewBox="0 0 865.8 865.8" style="enable-background:new 0 0 865.8 865.8;" xml:space="preserve">
<style type="text/css">
	.st0{fill:rgba(255,255,255,.3);}
</style>
<polyline class="st0" points="184.4,119.1 154.7,119.1 145.9,108.6 163.3,94 184.4,119.1 "/>
<path class="st0" d="M270.3,256.8L154.7,119.1h29.6l103.3,123.1C281.6,246.8,275.8,251.7,270.3,256.8"/>
<polyline class="st0" points="330.7,119.1 306.6,119.1 274.1,30 295.5,22.2 330.7,119.1 "/>
<path class="st0" d="M340.2,211.5l-33.6-92.4h24.1l30.8,84.6C354.2,206,347.1,208.6,340.2,211.5"/>
<polyline class="st0" points="389,119.1 366,119.1 346.5,8.5 368.8,4.6 389,119.1 "/>
<path class="st0" d="M380.1,199L366,119.2h23l13.4,75.9C394.9,196.1,387.4,197.3,380.1,199"/>
<path class="st0" d="M203.7,361.6l-181.5-66l7.8-21.3l181.5,66.1C208.6,347.2,206,354.3,203.7,361.6"/>
<path class="st0" d="M195.1,402.5L4.6,368.9l4-22.4L199,380.1C197.3,387.5,196.1,394.9,195.1,402.5"/>
<path class="st0" d="M242.2,287.7L94,163.3l14.6-17.4l148.3,124.4C251.7,275.9,246.7,281.7,242.2,287.7"/>
<path class="st0" d="M219.8,323L52.3,226.3l11.3-19.7l167.5,96.8C227,309.7,223.3,316.2,219.8,323"/>
<path class="st0" d="M0,444.3v-22.7h193.5c-0.2,3.8-0.6,7.5-0.6,11.3s0.4,7.6,0.6,11.4H0"/>
<path class="st0" d="M623.6,287.7c-4.6-6-9.4-11.8-14.6-17.4l148.3-124.4l14.6,17.3L623.6,287.7"/>
<path class="st0" d="M646,322.9c-3.5-6.8-7.3-13.3-11.4-19.7l167.5-96.7l11.3,19.6L646,322.9"/>
<path class="st0" d="M662.1,361.5c-2.3-7.3-4.9-14.4-7.8-21.3l181.6-66.1l7.7,21.3L662.1,361.5"/>
<path class="st0" d="M670.7,402.5c-1-7.6-2.2-15-3.9-22.4l190.4-33.6l3.9,22.3L670.7,402.5"/>
<rect x="421.5" class="st0" width="22.7" height="119.1"/>
<path class="st0" d="M444.2,193.5c-3.7-0.2-7.5-0.6-11.3-0.6c-3.9,0-7.6,0.4-11.4,0.6v-74.4h22.7V193.5"/>
<polyline class="st0" points="559.1,119.1 535,119.1 570.3,22.2 591.6,29.9 559.1,119.1 "/>
<path class="st0" d="M525.5,211.5c-7-2.9-14-5.5-21.3-7.8l30.8-84.6h24.1L525.5,211.5"/>
<polyline class="st0" points="711,119.1 681.4,119.1 702.5,94 719.9,108.5 711,119.1 "/>
<path class="st0" d="M595.5,256.8c-5.6-5.1-11.3-10-17.4-14.6l103.2-123h29.6L595.5,256.8"/>
<polyline class="st0" points="499.7,119.1 476.7,119.1 496.9,4.5 519.2,8.5 499.7,119.1 "/>
<path class="st0" d="M485.7,198.9c-7.3-1.6-14.8-2.9-22.3-3.9l13.4-75.9h23L485.7,198.9"/>
<polyline class="st0" points="627.1,119.1 600.9,119.1 639.5,52.3 659.2,63.6 627.1,119.1 "/>
<path class="st0" d="M562.5,231.1c-6.3-4.1-12.9-7.9-19.6-11.3L601,119.2h26.1L562.5,231.1"/>
<polyline class="st0" points="226.3,813.4 206.7,802.1 238.7,746.7 264.9,746.7 226.3,813.4 "/>
<path class="st0" d="M264.9,746.7h-26.2l64.7-112c6.4,4.1,12.9,7.9,19.6,11.4L264.9,746.7"/>
<polyline class="st0" points="264.8,119.1 238.6,119.1 206.6,63.7 226.2,52.3 264.8,119.1 "/>
<path class="st0" d="M303.3,231.2l-64.7-112h26.2l58.1,100.6C316.2,223.3,309.6,227.1,303.3,231.2"/>
<polyline class="st0" points="702.5,771.8 681.4,746.7 711,746.7 719.8,757.2 702.5,771.8 "/>
<path class="st0" d="M711,746.7h-29.6L578.1,623.6c6-4.6,11.8-9.5,17.4-14.6L711,746.7"/>
<path class="st0" d="M757.2,719.8L609,595.5c5.1-5.6,10-11.3,14.6-17.4l148.2,124.4L757.2,719.8"/>
<polyline class="st0" points="639.5,813.5 600.9,746.7 627.1,746.7 659.1,802.1 639.5,813.5 "/>
<path class="st0" d="M627.1,746.7h-26.2l-58.1-100.6c6.8-3.5,13.3-7.3,19.7-11.4L627.1,746.7"/>
<path class="st0" d="M802.1,659.2l-167.5-96.7c4.1-6.4,7.9-12.9,11.4-19.6l167.5,96.7L802.1,659.2"/>
<path class="st0" d="M865.8,444.2H672.3c0.2-3.8,0.6-7.5,0.6-11.3s-0.4-7.6-0.6-11.3h193.5V444.2"/>
<polyline class="st0" points="570.3,843.6 535,746.7 559.1,746.7 591.6,835.8 570.3,843.6 "/>
<path class="st0" d="M559.1,746.7H535l-30.8-84.6c7.3-2.3,14.4-4.9,21.3-7.8L559.1,746.7"/>
<path class="st0" d="M857.2,519.2l-190.4-33.6c1.7-7.3,2.9-14.8,3.9-22.3l190.5,33.6L857.2,519.2"/>
<path class="st0" d="M835.8,591.6l-181.5-66.1c2.9-7,5.5-14,7.8-21.3l181.5,66.1L835.8,591.6"/>
<polyline class="st0" points="496.8,861.2 476.6,746.7 499.7,746.7 519.2,857.3 496.8,861.2 "/>
<path class="st0" d="M499.7,746.7h-23l-13.4-75.9c7.6-0.9,15-2.2,22.4-3.9L499.7,746.7"/>
<polyline class="st0" points="163.4,771.8 146,757.2 154.8,746.7 184.4,746.7 163.4,771.8 "/>
<path class="st0" d="M184.4,746.7h-29.6l115.5-137.6c5.6,5.1,11.3,10,17.3,14.6L184.4,746.7"/>
<path class="st0" d="M108.6,719.8L94,702.4l148.2-124.3c4.6,6,9.5,11.8,14.6,17.4L108.6,719.8"/>
<path class="st0" d="M8.6,519.3l-4-22.4l190.5-33.6c1,7.6,2.2,15,3.9,22.3L8.6,519.3"/>
<path class="st0" d="M30,591.6l-7.7-21.3l181.5-66.1c2.2,7.3,4.9,14.4,7.8,21.3L30,591.6"/>
<path class="st0" d="M63.7,659.2l-11.3-19.6l167.4-96.7c3.5,6.8,7.3,13.3,11.4,19.6L63.7,659.2"/>
<rect x="421.5" y="746.7" class="st0" width="22.7" height="119.1"/>
<path class="st0" d="M444.2,746.7h-22.7v-74.4c3.8,0.2,7.5,0.6,11.4,0.6c3.8,0,7.5-0.4,11.3-0.6V746.7"/>
<polyline class="st0" points="368.9,861.1 346.6,857.2 366.1,746.7 389.1,746.7 368.9,861.1 "/>
<path class="st0" d="M389.1,746.7h-23l14.1-79.8c7.3,1.6,14.8,2.9,22.3,3.9L389.1,746.7"/>
<polyline class="st0" points="295.6,843.5 274.2,835.8 306.6,746.7 330.8,746.7 295.6,843.5 "/>
<path class="st0" d="M330.8,746.7h-24.2l33.6-92.4c7,2.9,14,5.5,21.3,7.8L330.8,746.7"/>
</svg>
