<?xml version="1.0" encoding="utf-8"?>
<!-- Generator: Adobe Illustrator 16.0.0, SVG Export Plug-In . SVG Version: 6.00 Build 0)  -->
<!DOCTYPE svg PUBLIC "-//W3C//DTD SVG 1.1//EN" "http://www.w3.org/Graphics/SVG/1.1/DTD/svg11.dtd">
<svg version="1.1" id="Layer_1" xmlns="http://www.w3.org/2000/svg" xmlns:xlink="http://www.w3.org/1999/xlink" x="0px" y="0px"
	 width="300px" height="300px" viewBox="0 0 300 300" enable-background="new 0 0 300 300" xml:space="preserve">
<g>
	<path d="M235.782,81.949H75.025c-2.238,0-4.052,1.813-4.052,4.059v112.779c0,2.242,1.814,4.055,4.052,4.055h62.085
		c-0.2,4.889-0.523,11.969-0.766,13.676c-0.383,2.666-0.955,4.475-3.241,5.049c-2.286,0.57-5.527,0.764-5.527,1.9
		c0,1.148,1.335,1.148,2.477,1.148c1.144,0,25.347,0,25.347,0h0.155c0,0,24.208,0,25.354,0c1.143,0,2.474,0,2.474-1.148
		c0-1.137-3.241-1.33-5.526-1.9c-2.287-0.574-2.853-2.383-3.236-5.049c-0.249-1.707-0.571-8.787-0.768-13.676h61.929
		c2.235,0,4.052-1.813,4.052-4.055V86.008C239.833,83.762,238.017,81.949,235.782,81.949z M232.019,193.07H79.358V89.391h152.661
		V193.07z"/>
	<path d="M213.343,110.535L144,179.88h69.344V110.535z M204.674,171.21h-38.766l38.766-38.77V171.21z"/>
</g>
</svg>
