<?xml version="1.0" encoding="utf-8"?>
<!-- Generator: Adobe Illustrator 16.0.0, SVG Export Plug-In . SVG Version: 6.00 Build 0)  -->
<!DOCTYPE svg PUBLIC "-//W3C//DTD SVG 1.1//EN" "http://www.w3.org/Graphics/SVG/1.1/DTD/svg11.dtd">
<svg version="1.1" id="Layer_1" xmlns="http://www.w3.org/2000/svg" xmlns:xlink="http://www.w3.org/1999/xlink" x="0px" y="0px"
	 width="300px" height="300px" viewBox="0 0 300 300" enable-background="new 0 0 300 300" xml:space="preserve">
<g>
	<g>
		<path d="M233.623,77.415H72.75c-2.242,0-4.054,1.814-4.054,4.06v112.867c0,2.24,1.812,4.055,4.054,4.055h62.129
			c-0.194,4.893-0.518,11.979-0.768,13.688c-0.379,2.67-0.949,4.479-3.236,5.053c-2.294,0.568-5.53,0.76-5.53,1.9
			c0,1.148,1.334,1.148,2.478,1.148c1.143,0,25.364,0,25.364,0h0.157c0,0,24.225,0,25.375,0c1.139,0,2.473,0,2.473-1.148
			c0-1.141-3.24-1.332-5.527-1.9c-2.297-0.574-2.865-2.383-3.248-5.053c-0.248-1.709-0.566-8.795-0.764-13.688h61.971
			c2.244,0,4.059-1.814,4.059-4.055V81.475C237.681,79.229,235.867,77.415,233.623,77.415z M229.857,188.621H77.085V84.861h152.771
			V188.621z"/>
	</g>
	<polygon points="82.775,104.074 82.775,112.764 87.115,117.104 91.458,112.764 152.25,112.764 156.593,117.104 160.931,112.764 
		160.931,104.074 	"/>
	<polygon points="126.197,121.444 126.197,130.129 130.537,134.473 134.878,130.129 195.673,130.129 200.015,134.473 
		204.359,130.129 204.359,121.444 	"/>
	<polygon points="160.931,138.809 160.931,147.497 165.273,151.841 169.617,147.497 208.636,147.497 212.978,151.841 
		217.324,147.497 217.324,138.809 	"/>
	<polygon points="231.498,156.187 186.99,156.187 186.99,164.867 191.332,169.208 195.673,164.867 231.498,164.867 	"/>
</g>
</svg>
