<?xml version="1.0" encoding="utf-8"?>
<!-- Generator: Adobe Illustrator 16.0.0, SVG Export Plug-In . SVG Version: 6.00 Build 0)  -->
<!DOCTYPE svg PUBLIC "-//W3C//DTD SVG 1.1//EN" "http://www.w3.org/Graphics/SVG/1.1/DTD/svg11.dtd">
<svg version="1.1" id="Layer_1" xmlns="http://www.w3.org/2000/svg" xmlns:xlink="http://www.w3.org/1999/xlink" x="0px" y="0px"
	 width="300px" height="300px" viewBox="0 0 300 300" enable-background="new 0 0 300 300" xml:space="preserve">
<g>
	<path d="M122.632,70.001c0,0-59.285-7.412-59.285,88.932h59.285V70.001z"/>
	<path d="M154.743,70.001c0-7.412-7.412-7.412-7.412-7.412s-7.405,0-14.824,0c-7.402,0-7.402,7.412-7.402,7.412v88.932h29.638
		C154.743,158.933,154.743,77.415,154.743,70.001z"/>
	<path d="M255.209,148.585l-15.857,17.064l-17.734-4.059l-5.359-17.387l15.855-17.071c-8.109-0.959-16.43,1.806-22.324,8.151
		c-7.027,7.561-8.76,18.152-5.379,27.201c0.816,7.877-2.951,10.578-2.951,10.578l-55.86,60.145c0,0-4.104,4.691,0.727,9.182
		c4.836,4.484,9.211,0.047,9.211,0.047l55.861-60.148c0,0,2.346-4.018,10.26-3.781c9.279,2.703,19.799,0.285,26.832-7.279
		C254.389,164.882,256.495,156.349,255.209,148.585z"/>
	<path d="M208.334,132.289c1.74-1.742,3.658-3.215,5.689-4.418c-11.229-63.564-56.811-57.869-56.811-57.869v88.932h43.234
		C198.485,149.613,201.094,139.523,208.334,132.289z"/>
	<path d="M201.288,162.099c-0.084-0.23-0.135-0.463-0.209-0.695H64.062c-3.219,0-5.832,2.615-5.832,5.832
		c0,3.223,2.613,5.836,5.832,5.836h133.457C198.692,171.869,201.717,168.638,201.288,162.099z"/>
</g>
</svg>
