<?xml version="1.0" encoding="utf-8"?>
<!-- Generator: Adobe Illustrator 16.0.0, SVG Export Plug-In . SVG Version: 6.00 Build 0)  -->
<!DOCTYPE svg PUBLIC "-//W3C//DTD SVG 1.1//EN" "http://www.w3.org/Graphics/SVG/1.1/DTD/svg11.dtd">
<svg version="1.1" id="Layer_1" xmlns="http://www.w3.org/2000/svg" xmlns:xlink="http://www.w3.org/1999/xlink" x="0px" y="0px"
	 width="300px" height="300px" viewBox="0 0 300 300" enable-background="new 0 0 300 300" xml:space="preserve">
<g>
	<path d="M207.424,186.681c11.469-13.084,18.426-30.223,18.426-48.994c0-3.938-0.314-7.803-0.904-11.578l12.174-4.593l-4.008-10.618
		L73.703,171.054l4.008,10.619l11.001-4.152c13.189,20.75,36.374,34.523,62.781,34.523c5.857,0,11.555-0.678,17.02-1.959
		l-8.865,18.846l27.658-13.77l22.52,21.148l-4.547-30.559l27.072-14.885L207.424,186.681z M102.311,172.39l109.03-41.145
		c0.227,2.117,0.346,4.266,0.346,6.441c0,13.576-4.496,26.098-12.074,36.17l-3.52-18.457l-14.283,27.398l-30.652-3.873l16.461,16.77
		c-5.133,1.424-10.539,2.186-16.125,2.186C131.174,197.88,113.212,187.812,102.311,172.39z"/>
	<path d="M224.471,87.994l-13.488,5.09c-13.564-18.063-35.16-29.748-59.49-29.748c-41.062,0-74.352,33.289-74.352,74.352
		c0,1.96,0.077,3.899,0.225,5.818l-12.307,4.645l4.03,10.676l159.408-60.156L224.471,87.994z M91.303,137.687
		c0-33.238,26.95-60.189,60.19-60.189c18.203,0,34.51,8.082,45.547,20.85L91.313,138.241
		C91.313,138.056,91.303,137.875,91.303,137.687z"/>
</g>
</svg>
